<svg xmlns="http://www.w3.org/2000/svg" width="88" height="131" viewBox="0 0 88 131">
  <g fill="none" fill-rule="evenodd">
    <ellipse cx="44" cy="120.08" fill="#FFF" rx="36" ry="10.08"/>
    <path fill="#5CB6E4" d="M83.5178767,28.0027194 L83.1621728,31.2856058 L82.4597556,40.5595703 C82.3612874,40.5595703 82.2601904,40.5690641 82.1561897,40.5874706 L73.9268021,119.322998 C73.8317549,119.795213 73.2011954,120.626213 71.9085343,121.579017 C70.3254376,122.751815 68.0521538,123.865542 65.2523671,124.819794 C59.3696217,126.839899 51.602107,128 43.3637644,128 C35.1254217,128 27.3574332,126.839899 21.4738641,124.819794 C18.6736889,123.865542 16.3999523,122.751815 14.8163793,121.579017 C13.5233317,120.626213 12.8924355,119.795213 12.7632543,119.154846 L3.16848404,28 C3.11216501,27.0258168 3.03773944,26.2681682 3,25.7675781 C6.78773709,25.7675781 10.8063277,29.2802734 25.1119345,30.0668945 C39.3752035,30.8535156 54.6992611,25 64.7563268,25 C71.2873537,25 77.3550436,26.1412903 82.9224172,28.4238708 C83.1289169,28.284725 83.3274652,28.1443238 83.5178767,28.0027194 Z"/>
    <circle cx="32" cy="103" r="2" stroke="#A5D6F0"/>
    <circle cx="33" cy="40" r="3" stroke="#A5D6F0"/>
    <path fill="#2B9DD6" d="M4.78076172,31.4873047 C9.25537109,27.7470703 14.4261068,26.180013 20.2929688,26.7861328 C29.0932617,27.6953125 39.265625,39.6962891 59.3911133,39.6962891 C79.5166016,39.6962891 82.1982422,29.5595703 85.6762695,29.5595703 C85.6762695,25.0488281 85.6762695,21.0651042 85.6762695,17.6083984 C81.5056966,15.2027995 75.9025065,14 68.8666992,14 C58.3129883,14 42.1850586,19.8535156 27.0810547,19.0668945 C11.9770508,18.2802734 7.98046875,14.7675781 4,14.7675781 C4,16.6614583 4.26025391,22.2347005 4.78076172,31.4873047 Z" opacity=".8" transform="matrix(-1 0 0 1 89.676 0)"/>
    <polygon fill="#FFF" points="85.796 16 75.071 120.583 70 123.045 80.071 18" opacity=".45"/>
    <path fill="#FFF" fill-rule="nonzero" d="M13.4704345,118.364909 C13.589158,118.987173 14.202565,119.794679 15.4714566,120.720546 C17.0267923,121.860187 19.2698613,122.942428 22.0401013,123.869702 C27.8689928,125.832697 35.589538,126.96 43.7878788,126.96 C51.9862196,126.96 59.7067647,125.832697 65.5356563,123.869702 C68.3058963,122.942428 70.5489653,121.860187 72.104301,120.720546 C73.3731926,119.794679 73.9865996,118.987173 74.0741277,118.528307 L84.3317079,17 L3.24404972,17 L13.4704345,118.364909 Z M2.91919192,14 L3.13131313,17 L85.4124579,17 L85.6296296,14 L87.5757576,14 L76.4360269,119 C75.2193449,125.098889 60.9170323,129.96 43.7878788,129.96 C26.6587253,129.96 12.3564127,125.098889 11.1726267,119 L0,14 L2.91919192,14 Z"/>
    <path fill="#FFF" fill-rule="nonzero" d="M44,25.2 C19.699471,25.2 0,19.5587878 0,12.6 C0,5.64121215 19.699471,0 44,0 C68.300529,0 88,5.64121215 88,12.6 C88,19.5587878 68.300529,25.2 44,25.2 Z M44,22.2 C55.5765584,22.2 66.4007072,20.8889617 74.3217839,18.6206534 C78.0624776,17.5494547 81.0024889,16.3032604 82.9230617,15.0029564 C84.457269,13.9642372 85.0666667,13.1114314 85.0666667,12.6 C85.0666667,12.0885686 84.457269,11.2357628 82.9230617,10.1970436 C81.0024889,8.89673956 78.0624776,7.65054527 74.3217839,6.57934662 C66.4007072,4.31103827 55.5765584,3 44,3 C32.4234416,3 21.5992928,4.31103827 13.6782161,6.57934662 C9.93752238,7.65054527 6.99751114,8.89673956 5.0769383,10.1970436 C3.54273098,11.2357628 2.93333333,12.0885686 2.93333333,12.6 C2.93333333,13.1114314 3.54273098,13.9642372 5.0769383,15.0029564 C6.99751114,16.3032604 9.93752238,17.5494547 13.6782161,18.6206534 C21.5992928,20.8889617 32.4234416,22.2 44,22.2 Z"/>
  </g>
</svg>
