<svg xmlns="http://www.w3.org/2000/svg" width="56" height="56" viewBox="0 0 56 56">
  <g fill="none" fill-rule="evenodd" transform="translate(-8 -8)">
    <path stroke="#E6EDF2" stroke-width="2" d="M60.8515577,29.8524226 C60.1781834,24.9470736 58.305854,21.0672033 55.2364712,18.1741759 C54.2556203,17.2496811 51.5350337,14.5562423 51.6936396,14.7102356 C50.6104336,13.6585322 49.899671,13.0562294 49.2282202,12.6462395 C48.1185334,11.9686613 47.0822137,11.8274328 45.529987,12.2015881 C44.23165,12.5145447 43.6790675,13.4690303 42.8100827,16.400186 C42.8078744,16.4076348 42.8078744,16.4076348 42.8056653,16.4150864 C41.7621859,19.9347984 40.9866514,21.3143063 38.8365023,21.9446589 C37.5090991,22.3338097 37.0876219,23.1960247 37.4479391,24.2740703 C37.8291705,25.4146901 38.956967,26.2936406 40.1728516,26.2936406 C41.9192848,26.2936406 44.7481082,26.5628111 47.3091038,26.9552001 C51.2767711,27.5631156 52.4951172,27.8715382 52.4951172,29.0866093 C52.4951172,29.4045611 52.7498106,30.5874351 53.0741146,31.4727477 C53.2757891,32.0232958 53.4995969,32.4700145 53.723513,32.7631501 C53.8922551,32.9840557 54.0001228,33.0538945 54.0327148,33.0538945 C54.8489656,33.0538945 57.2140618,31.9719023 60.8515577,29.8524226 Z"/>
    <path fill="#E6EDF2" d="M56.7695312,37.4453125 C57.7992345,41.6962316 52.8227539,47.421082 52.8227539,47.421082 C52.8227539,47.421082 51.4438477,57.1427617 50.4975586,57.1427617 C49.8666992,57.1427617 47.4684245,55.5810755 43.3027344,52.4577031 C43.203776,45.4759323 42.7456055,41.5553593 41.9282227,40.6959843 C40.7021484,39.4069218 34.1455078,40.6959843 32.9492187,40.6959843 C31.7529297,40.6959843 29.28125,27.1950078 32.9492187,27.1950078 C35.3945312,27.1950078 37.8557943,28.0293177 40.3330078,29.6979375 C45.5380859,29.2828984 48.4542643,30.0423385 49.081543,31.9762578 C50.0224609,34.8771367 55.739828,33.1943934 56.7695312,37.4453125 Z"/>
    <path stroke="#E6EDF2" stroke-width="2" d="M19.1633657,16.8446744 C16.9813651,19.1931576 15.3297769,20.9431435 14.2071901,22.0960581 C12.9766354,23.3598572 11.2605118,27.5438425 10.4948596,31.8744187 C9.488478,37.5665747 10.0388497,43.0146797 12.5010192,47.4134222 C15.6828174,53.0978037 19.4586317,56.726193 23.8337253,58.3507873 C23.2842743,57.2135574 22.7030978,55.8366642 22.087253,54.2168976 C21.7021086,53.2039087 21.5392679,52.1102314 21.5548841,50.9052078 C21.5692347,49.7978479 21.7075506,48.7910044 22.0162641,47.1619243 C22.5234701,44.4853992 22.5717819,43.7222877 22.2402668,43.3067528 C21.4061065,42.2611811 18.6671488,40.8859186 14.1417448,39.3330708 L13.4291564,39.0885532 L13.4676122,38.3361621 C13.7288346,33.225333 14.4170215,29.4595191 15.5627005,27.0065157 C16.3987469,25.2164641 17.6023721,21.8219031 19.1633657,16.8446744 Z"/>
    <path fill="#E6EDF2" stroke="#FFF" stroke-width="2" d="M37,11.8910112 C29.0043437,24.7999339 25,33.4918745 25,37.7538313 C25,44.2049159 30.3672639,49.4444444 37,49.4444444 C43.6327361,49.4444444 49,44.2049159 49,37.7538313 C49,33.4918745 44.9956563,24.7999339 37,11.8910112 Z"/>
    <path stroke="#1A589A" stroke-width="2" d="M36,9.89101122 C28.0043437,22.7999339 24,31.4918745 24,35.7538313 C24,42.2049159 29.3672639,47.4444444 36,47.4444444 C42.6327361,47.4444444 48,42.2049159 48,35.7538313 C48,31.4918745 43.9956563,22.7999339 36,9.89101122 Z"/>
    <path fill="#1A589A" fill-rule="nonzero" d="M34,63.9296719 L34,61.9242207 C34.6600832,61.9744341 35.327056,62 36,62 C50.3594035,62 62,50.3594035 62,36 C62,21.6405965 50.3594035,10 36,10 C21.6405965,10 10,21.6405965 10,36 C10,44.3252897 13.9129216,51.7366676 20,56.4953689 L20,58.9812429 C12.7460636,53.9214583 8,45.5149804 8,36 C8,20.536027 20.536027,8 36,8 C51.463973,8 64,20.536027 64,36 C64,51.463973 51.463973,64 36,64 C35.3275331,64 34.6606031,63.9762939 34,63.9296719 Z" transform="rotate(160 36 36)"/>
  </g>
</svg>
