<svg xmlns="http://www.w3.org/2000/svg" width="129" height="143" viewBox="0 0 129 143">
  <path fill="#2762A0" fill-rule="evenodd" d="M123.573441,47.3235549 C123.546444,47.5856919 123.561684,47.5647907 123.476773,47.7063097 C123.031314,48.2767407 121.625703,49.6775621 121.01913,50.0259168 C121.01913,50.0259168 120.926816,49.5347366 120.875434,49.7864229 C120.878482,49.8273547 120.881966,49.8687217 120.885449,49.9105243 C119.94402,50.2236081 119.711929,50.8976745 119.109711,51.2995888 C118.696475,51.3723078 118.284546,51.4458978 117.87131,51.5186169 C116.272797,52.3311543 112.037674,53.9357633 109.495991,53.5355907 C109.120639,53.4754996 107.382349,53.2734539 107.079716,53.091874 C107.028333,52.9699497 106.978257,52.8493319 106.92644,52.7269723 C106.524525,52.4748506 105.53781,52.1278022 105.372777,52.0934022 C105.088868,51.9618983 104.834569,52.1369465 104.508858,52.2849973 C104.232351,51.3858066 103.13155,51.2564799 102.487094,50.4304438 C102.782325,50.2462512 102.57636,50.4774716 102.717443,50.1626461 C102.386942,50.005451 102.578972,50.2000941 102.440066,49.8073242 C102.187073,49.7846812 101.934516,49.7616027 101.682394,49.7402659 C101.600967,49.5552025 101.581372,49.536043 101.52041,49.2495212 C101.596177,49.1602553 101.672379,49.0709895 101.749888,48.9808527 C100.901644,48.6642853 100.551983,47.9793327 100.226707,47.0905928 C100.268945,47.0879801 100.309877,47.0844965 100.351679,47.081013 C100.440945,47.1580865 100.530211,47.2342891 100.619477,47.3122334 C100.613381,47.2286284 100.606849,47.1454586 100.600753,47.0627244 C100.202322,46.9151091 99.9018664,45.6218421 99.5665749,45.0096087 C99.4067671,45.1040999 99.2469594,45.1998975 99.0871518,45.2961305 C99.0740884,45.129791 99.0623315,44.9630162 99.0492682,44.7975478 C99.3384025,44.6690919 99.2500076,44.7317958 99.4032837,44.5197349 C98.7758097,44.6303375 98.6286298,44.6068235 98.5890045,43.7032784 C98.9552123,43.5099416 98.9617439,43.494701 99.308357,43.2721895 C99.2992127,43.1480881 99.2900683,43.0226804 99.2800531,42.8981436 C99.1150202,42.9103359 98.9482453,42.9233993 98.7814705,42.9355917 C98.7784223,42.89466 98.7758097,42.8532928 98.7723261,42.8119258 C99.288762,42.3303253 98.9025237,41.1624661 98.841997,40.4235186 C98.8001945,40.4261312 98.7588274,40.4291794 98.7183312,40.4322275 C98.5641841,40.647772 98.6486602,40.5785365 98.3612675,40.7109113 C98.3490751,40.5445719 98.3368827,40.377797 98.3238194,40.2114576 C98.2720016,39.9580297 98.1931864,39.6510419 98.372589,39.204277 C97.7586138,38.8402464 98.2558902,38.8371982 98.4209233,38.1970965 C98.3799916,38.2005799 98.3386244,38.2031927 98.296822,38.2062408 C98.2197484,38.2963775 98.1426749,38.3847726 98.0664723,38.4753448 C98.0560217,38.3503726 98.0477483,38.2254003 98.0372976,38.1017344 C98.2014598,37.8565796 98.1021787,37.7603466 98.3738954,37.5739769 C98.4135208,37.5286908 98.4514043,37.484711 98.4897234,37.4398603 C98.4958195,37.5230301 98.5027867,37.6057643 98.5088829,37.6889339 C98.2127813,37.8739974 98.4191815,37.6432124 98.2772269,37.9576026 C98.3225131,37.9963571 98.3673637,38.0333697 98.411779,38.0725597 C98.4505335,38.0272735 98.4892879,37.9828583 98.5280424,37.9384431 C99.280924,36.7775509 99.0784429,34.7331441 99.9885196,34.0656093 C99.8326308,33.882723 99.846565,33.9702471 99.7111421,33.7094166 C100.134829,33.4555531 100.02292,33.0997959 100.153553,32.9238767 C100.301168,32.6861245 100.363436,32.9648083 100.364307,32.4048281 C100.890758,32.0756329 100.697857,31.089789 101.123721,30.8437634 C101.169007,30.881647 101.212986,30.9190952 101.258273,30.9578496 C101.272642,30.6652317 101.290495,30.6447659 101.344055,30.4496872 C101.065807,30.4300922 101.220389,30.5890291 101.085837,30.3438745 C101.38847,30.1383452 101.227356,30.3604212 101.306607,29.9506691 C101.217341,29.874031 101.128075,29.7969576 101.038809,29.720755 C101.384116,29.4843091 101.559164,29.3105672 101.729858,28.91562 C101.926678,29.0088049 101.849169,29.2635393 101.988511,29.0209973 C102.433534,28.6560957 102.858527,27.8122064 102.978274,27.1890869 C102.703509,27.2757402 102.627307,27.3623934 102.353848,27.2374211 C102.445291,27.1024337 102.396086,27.199973 102.460096,26.9778969 C103.091925,26.9391423 102.673028,26.9696234 103.055348,26.5572585 C103.135034,26.7976233 103.482082,26.5768535 103.554366,26.5189395 C103.142001,26.4470913 103.367996,26.5942711 103.161596,26.2981697 C103.240411,26.2502709 103.320533,26.2019366 103.401525,26.1544734 C103.536948,26.0412581 103.550882,26.0834961 103.890528,25.9916174 C103.91709,25.5696728 103.928412,25.656326 103.833485,25.2439611 C104.298539,25.2544117 105.860909,23.0710985 106.128707,22.4349156 C106.378652,22.4201106 106.173122,22.5603234 106.378216,22.4166271 C106.4161,22.3713409 106.454854,22.3260549 106.493173,22.2816395 C106.403907,22.2054369 106.314206,22.1283635 106.22494,22.05129 C106.635563,21.7316745 106.624242,21.4299122 106.896829,20.9970815 C107.153306,21.1076841 107.241265,20.9439574 107.521255,20.950489 C107.518207,20.908251 107.515159,20.8664485 107.511675,20.8242105 C107.161144,20.4231671 108.544112,19.6093233 108.769672,19.223956 C108.756173,19.0576166 108.74398,18.8912772 108.731353,18.7249377 C109.13675,18.7767555 109.270867,18.7406138 109.45114,18.2938488 C109.566098,18.0652409 109.506006,18.0164713 109.529085,17.6615849 C110.179202,17.4342835 111.859143,15.4247122 112.140004,15.7073149 C112.453958,15.2043778 112.585462,14.3935821 113.013503,14.0099564 C113.292187,13.760012 113.760724,13.947688 113.99238,13.6842448 C114.242324,13.4007711 114.212714,12.9888417 114.415195,12.6496312 C114.546699,12.4306032 114.963854,12.4092665 115.135419,12.2181068 C115.368381,11.9581471 115.42107,11.5292353 115.691915,11.297144 C116.281506,10.7950777 116.770073,10.4223382 117.343117,9.91765924 C117.451542,9.69993753 117.561274,9.48352215 117.669699,9.26580044 C117.874793,9.2091928 118.079452,9.15171427 118.284546,9.0938003 C118.516201,8.80858486 118.125173,8.81076208 118.495736,8.57605807 C119.14803,8.01564239 122.931598,7.90678155 123.378363,8.4550048 C123.397087,8.70538476 123.416246,8.95445841 123.43497,9.20353203 C123.942262,9.87846933 123.637887,10.7097308 123.997999,11.6698835 C124.093361,11.9228762 124.456085,12.1680308 124.554495,12.3809626 C124.842323,13.0001632 124.665098,13.4734902 124.792683,13.8675664 C125.126668,14.8956483 125.414931,15.4464843 125.730628,16.3043078 C125.83078,16.5782018 125.669231,16.6491791 125.643975,16.8124703 C125.850375,17.3036504 126.214841,18.3321678 126.159975,18.654396 C126.077676,18.6604922 125.9932,18.6674592 125.910902,18.6726845 C125.917869,18.7567252 125.923529,18.8403302 125.930061,18.9230646 C126.10598,19.0349735 126.281899,19.1473178 126.457818,19.2596623 C126.768725,19.7560678 126.990801,22.9478681 127.115338,22.9713819 C126.948999,22.9844452 126.782659,22.9966377 126.616755,23.0097009 C126.432127,22.8198477 126.526619,22.8755843 126.223114,22.7880603 C126.227469,22.8302983 126.229646,22.8721009 126.23313,22.9139034 C126.342861,23.0332149 126.280593,22.9443845 126.376826,23.1538328 C127.001252,23.1507847 127.042184,22.9935896 127.16193,23.5953724 C126.871925,24.2973071 127.797678,24.783262 127.314771,25.5905741 C127.310852,25.549207 127.308239,25.5082752 127.304756,25.4660373 C127.262953,25.4695208 127.221586,25.4730044 127.180655,25.4760525 C127.21549,25.3893993 127.251196,25.3036169 127.286032,25.2165283 C127.244229,25.2200117 127.202862,25.2230599 127.16106,25.2269789 C127.042184,25.3362752 127.131449,25.2722649 126.922001,25.3698043 C126.966416,25.4081234 127.011267,25.4468778 127.055682,25.4851968 C127.278629,25.8100376 127.191541,25.7895717 127.707541,25.8113439 C127.745425,25.7664932 127.784179,25.7225134 127.822934,25.6776628 C127.921779,26.3543418 127.700139,27.3597807 127.69622,27.3179782 C127.798549,27.7168443 127.609131,29.6981119 127.700139,29.8130689 C127.703622,29.8561778 127.76502,29.8635803 127.886508,29.8121981 C128.024544,30.6434594 128.214833,30.1483603 128.470003,30.8968875 C128.161709,31.050599 128.119471,31.1089486 128.009739,31.4329184 C128.999066,32.052119 128.410347,34.8023795 128.716028,35.7686285 C128.62981,35.7342285 128.542722,35.6989576 128.457375,35.6636866 C128.460423,35.7054892 128.463035,35.7464209 128.466519,35.7882234 C128.602377,36.0612464 128.486114,36.9774195 128.607603,37.6588884 C128.524433,37.6645491 128.441699,37.6710808 128.358529,37.6780479 C128.189142,37.8613695 128.294083,37.5278199 128.109455,37.6963365 C128.019319,37.8317594 128.067653,37.7346555 128.003207,37.9554253 C128.348078,37.9266861 128.262731,37.7908278 128.405992,38.3011674 C127.714944,39.0348896 128.147774,39.9345157 127.800726,40.22844 C127.793759,40.1457058 127.788534,40.0616651 127.781131,39.9789309 C127.692301,39.8783435 127.584746,39.5987887 127.493738,39.4995077 C127.490255,41.574831 126.68033,43.4306908 125.781139,45.0222366 C125.597818,45.3479483 125.188065,45.319209 124.946394,45.588313 C124.998212,45.7106725 125.049159,45.830855 125.099671,45.9519082 C124.996906,46.1082323 124.737817,46.1017007 124.619812,46.2397363 C123.977533,46.9961015 124.842759,47.2120815 123.573441,47.3235549 Z M110.474432,21.8540342 C110.076873,21.9881507 110.278918,21.8078771 110.119111,22.1322825 C110.07426,22.76324 109.263029,23.1738632 108.736578,23.7412459 C108.710887,23.7682434 108.2184,25.3175511 108.005904,25.6785337 C107.699787,26.1988886 107.007432,26.7658359 106.747037,27.2792237 C106.724829,27.5322162 106.702186,27.7852089 106.679979,28.0373307 C105.819978,29.6767751 104.801911,31.4080981 104.306812,33.109811 C104.264574,33.1128591 104.223642,33.1154718 104.18184,33.1185199 C104.136554,32.5803118 104.42743,32.7392486 103.893576,32.6386612 C103.840017,33.0553805 103.801262,33.1228743 103.816938,33.271796 C104.034224,33.3950264 104.073414,33.132454 104.334245,33.4834215 C103.719399,33.5348037 103.689789,33.4903885 103.624037,34.0399181 C103.665839,34.0359991 103.708077,34.0333865 103.749009,34.0303384 C103.792553,33.882723 103.847419,33.4337809 103.979794,33.7612344 C104.089526,33.8814167 104.025515,33.7917154 104.123055,34.0007283 C103.767298,34.371726 103.680209,35.2443547 103.632745,35.7938842 C103.466842,35.8069475 103.300067,35.8200108 103.133292,35.8326387 C103.068846,36.0878085 103.004836,36.3442846 102.940391,36.59989 C102.982193,36.595971 103.02356,36.5924874 103.065363,36.5898748 C103.21951,36.4113429 103.372786,36.2323757 103.526497,36.053844 C103.536512,36.1779453 103.546092,36.3029176 103.555237,36.4274544 C102.883783,37.7629594 103.686305,38.5598207 103.312259,39.8313156 C103.260006,40.0098473 102.88596,40.1139183 102.841545,40.2449868 C102.886831,40.2824349 102.931246,40.3211894 102.976097,40.3599438 C103.398041,40.5876808 103.124148,41.2003497 103.19556,41.5966032 C102.711783,41.6488564 103.043591,41.490355 102.706557,41.7603299 C102.728765,41.5073373 102.751408,41.25478 102.773616,41.0017875 C102.732684,41.005271 102.690446,41.0083191 102.649079,41.0122381 C102.610324,41.0557825 102.572005,41.101504 102.533251,41.1459193 C102.479691,41.3514486 102.457484,41.452036 102.456613,41.779054 C103.035753,42.5667712 102.223651,43.0527259 102.992644,43.8704887 C102.902072,43.3261844 102.820644,42.8315207 103.127631,42.3551456 C103.131115,42.3956419 103.134163,42.4378799 103.136776,42.4801178 C103.664968,43.1776982 103.688918,45.9584399 103.546092,46.2114325 C103.712432,46.1988046 103.878336,46.1861768 104.04424,46.1735489 C104.23148,47.007423 104.801476,47.1650535 105.165071,47.7189376 C108.204901,52.3333315 115.371865,50.282393 118.806207,47.3091853 C119.96797,46.303311 120.412558,44.8798466 121.284315,43.6083517 C122.971659,41.147661 123.338737,38.8297957 123.929199,35.5056206 C124.250556,33.6998368 123.69014,31.4964932 123.752844,29.8749019 C123.761553,29.6118941 123.379669,29.1677418 123.542525,28.7623439 C123.620469,28.5668299 123.911345,28.7018173 123.868672,28.1096143 C123.863882,28.0416851 123.835578,26.7283877 123.746312,26.4893293 C123.537299,25.9354453 123.167608,25.9149794 123.151932,25.2809738 C123.190251,25.2356878 123.22857,25.1899662 123.26776,25.1459864 C123.353107,25.1808218 123.440196,25.2160927 123.525107,25.2517991 C123.52293,25.2099965 123.519446,25.1690649 123.515963,25.1268269 C123.607406,24.9918395 123.558201,25.0889433 123.622211,24.8677381 C122.723456,24.047798 122.991253,22.1022369 122.542311,20.5598964 C122.265369,19.6054043 122.393825,18.8159454 121.950544,17.7199343 C121.365743,16.2773103 120.719545,14.3326201 120.726948,13.1730342 C120.501823,13.1098949 120.603282,13.1582291 120.467859,13.0672214 C120.164355,13.1852267 120.091636,13.4900371 119.987565,13.3541787 C119.782036,13.1547455 120.122552,13.1821785 119.710187,12.9984214 C118.623756,14.1649744 116.500534,14.9788181 115.305677,16.0939887 C115.157626,16.229847 115.141515,16.6017157 114.977353,16.7458475 C113.878294,17.711661 112.892885,18.6522187 111.809937,19.6202094 C111.05662,20.2929695 111.388864,20.8285649 110.436549,21.3558869 C110.449177,21.5213554 110.461369,21.6876947 110.474432,21.8540342 Z M40.4446805,22.7536603 L38.3859041,23.7773877 L32.753879,18.3208463 L33.6835507,26.1157188 L31.7889364,27.0580184 L18.0641953,14.2450959 L21.1523601,12.7097224 L30.9106469,22.358713 L30.2696743,16.2581508 L24.5444642,11.0223792 L27.1876058,9.70821096 L29.8930157,12.2150587 L29.386595,8.61524798 L31.8895238,7.36987981 L32.5984257,14.7210356 L37.4501362,18.9030341 L35.4222762,5.61330107 L38.206066,4.22902646 L40.4446805,22.7536603 Z M54.87005,18.2394184 L52.5456531,14.4205796 L46.9345292,15.7809048 L46.5670151,20.2520378 L43.2149716,21.0645752 L45.2201885,2.83604296 L48.0893252,2.13976895 L58.2212225,17.4264455 L54.87005,18.2394184 Z M63.6664425,3.04636214 L64.3775216,17.4773924 L61.089053,17.6393773 L60.3788447,3.20878253 L55.2118732,3.46308148 L55.0738376,0.671018304 L68.6953785,0 L68.8329787,2.79249862 L63.6664425,3.04636214 Z M69.5440577,17.1939187 L71.3563732,0.0461570021 L81.8004836,1.14957062 L81.5069947,3.92944139 L74.3361125,3.17220529 L73.8884767,7.40732794 L79.7604312,8.02739937 L79.4665068,10.8077056 L73.5945523,10.1871987 L73.1112101,14.7593546 L80.6199964,15.553168 L80.3265076,18.3334741 L69.5440577,17.1939187 Z M90.7262027,21.4791174 L88.9974924,13.7234347 L87.4246707,13.2370444 L85.3859246,19.8257387 L82.2407168,18.8525227 L87.3393238,2.37926282 L92.8298298,4.07923392 C95.2256395,4.8212295 96.2319492,5.46046044 96.9195144,6.68492732 C97.5626643,7.78659916 97.6410442,9.1238459 97.1620563,10.6714118 C96.7679801,11.9442129 96.1518276,12.8747555 95.3057611,13.4882952 C94.4344389,14.0935616 93.752099,14.2655618 92.2637534,14.2150503 L94.1701246,22.5450828 L90.7262027,21.4791174 Z M47.5972741,6.31871941 L47.1387522,12.8551605 L51.0237784,11.9132964 L47.5972741,6.31871941 Z M91.7037731,6.65705894 L89.657189,6.02392422 L88.2515778,10.5664699 L90.2977263,11.1996047 C92.2946699,11.8179343 93.3845847,11.3890225 93.8949244,9.74217555 C94.3808792,8.16935392 93.7512281,7.29106455 91.7037731,6.65705894 Z M11.4998858,96.0444479 L3.55565617,97.6211885 L3.15156468,95.5876677 L11.0962298,94.011798 L11.4998858,96.0444479 Z M4.44134807,87.2963897 C4.32116568,87.516724 4.21622383,87.7183343 4.14219844,87.8816256 C3.84522604,88.4847147 3.69717528,89.1966647 3.74725126,89.7858197 C3.81605133,90.583552 4.17398582,91.0777803 4.62554063,91.0394613 C4.98957133,91.0072384 5.19161708,90.7111369 5.38887294,89.9604325 C5.62314151,89.0298899 6.0433444,87.8224053 6.28893449,87.4344252 C6.59287399,86.901007 7.29306701,86.508237 8.00458154,86.4459686 C9.4794284,86.3183838 10.5623762,87.5193367 10.7304573,89.4618497 C10.7648574,89.8615868 10.7496168,90.2996428 10.6882193,90.7947421 C10.5967762,91.5541554 10.4892217,91.9308139 10.1138694,92.8543894 L8.37383756,92.3405662 C8.80623287,91.4818718 8.93425324,91.138307 9.07446602,90.5326051 C9.15110406,90.210377 9.17810155,89.9107919 9.15284583,89.6168676 C9.08361033,88.8182644 8.78315437,88.3723704 8.34945273,88.4098185 C7.98455114,88.4411704 7.7293813,88.725515 7.56913812,89.2976876 L7.15111245,90.7333445 C6.73613487,92.2029661 6.02984565,92.927544 4.95430041,93.0220351 C3.44418265,93.1522327 2.30636901,91.9216696 2.13698152,89.9613034 C2.10388782,89.5785486 2.11695112,89.1235103 2.17747776,88.6105579 C2.26804999,87.8341622 2.34773613,87.5476406 2.70088074,86.782131 L4.44134807,87.2963897 Z M11.3479161,74.5148191 L11.2878249,74.9459081 C11.1449995,75.9809571 10.9264069,76.2848965 10.1691708,76.5496462 C10.7544067,77.4039861 10.9547107,78.1181133 10.8423663,78.928909 C10.6538193,80.2918469 9.62225383,81.1331235 8.34640462,80.9572045 C8.06989806,80.9184499 7.80122946,80.8287486 7.55389761,80.706389 C6.85065649,80.3279887 6.53800812,79.7928287 6.35512189,78.5714099 L6.01460513,76.2030332 L5.34184506,76.1094129 C4.47923165,75.9901014 4.03899836,76.2457066 3.94581346,76.9184668 C3.86046656,77.5398445 4.11955539,78.0850196 4.5158089,78.1407564 C4.5850444,78.1503361 4.62205709,78.1377082 4.72961162,78.1172424 L4.88898391,80.1442316 C4.63512039,80.1969203 4.54716083,80.2021456 4.32290746,80.171229 C2.90728091,79.9752795 2.26935631,78.6210504 2.56937682,76.4468815 C2.83499731,74.5318014 3.74768671,73.7793552 5.507749,74.0223326 L8.85500253,74.4860799 C9.58001582,74.5862317 9.71195517,74.5169963 9.83997554,73.9722566 L11.3479161,74.5148191 Z M15.9235555,61.0922758 L11.4097491,59.1118791 L9.03788877,64.5183446 L13.5516953,66.4991767 L12.6694869,68.5091835 L2.14307773,63.8904352 L3.02485064,61.8808638 L7.23558848,63.7280148 L9.60744876,58.3211139 L5.39671093,56.473092 L6.27891929,54.4639561 L16.8053284,59.0827044 L15.9235555,61.0922758 Z M21.0731093,53.0121878 L19.9723084,52.2175035 C20.2762479,53.6400972 20.1469213,54.5344979 19.5451384,55.3679366 C18.6886212,56.5540845 17.6535722,56.7091023 16.4103813,55.8112181 L11.5808783,52.325058 L12.8044743,50.6303122 L17.0265337,53.6784162 C17.832104,54.2592978 18.2444689,54.3429028 18.529249,53.9475202 C18.7948694,53.5804415 18.7844188,52.8210281 18.5383932,51.5255839 L18.4608843,51.1262823 L14.507058,48.2719508 L15.7302187,46.5767695 L22.2967054,51.3178774 L21.0731093,53.0121878 Z M31.0482471,42.9229638 L27.6078086,39.0135528 C26.9402739,38.2550104 26.5675344,38.0960735 26.2021974,38.4174308 C26.0058124,38.5903019 25.8298932,39.023568 25.74324,39.6101103 C25.681407,39.9889461 25.6557159,40.4065363 25.6548449,41.1964306 L28.8649338,44.8445756 L27.2960312,46.2258021 L23.8555927,42.3163911 C23.188058,41.5578487 22.8157539,41.3980409 22.4360473,41.7320261 C22.1094647,42.0198541 21.9387709,42.7492219 21.9039354,44.0795016 L21.8904367,44.4866412 L25.1127179,48.1469784 L23.5433798,49.528205 L18.1926511,43.4485441 L19.7615538,42.0677529 L20.6481165,43.0740627 C20.6772912,41.6323095 20.9916814,40.7762277 21.7632871,40.0969361 C22.6650905,39.3031227 23.5825697,39.2378062 24.4051223,39.8826979 C24.3698515,38.4988588 24.7177708,37.4964679 25.5150676,36.7940977 C26.6136914,35.8274133 27.6692062,35.919292 28.6820476,37.0701689 L32.6175852,41.5417373 L31.0482471,42.9229638 Z M39.9369535,37.6937238 L39.5568115,37.9066557 C38.6449929,38.4174308 38.270947,38.4270106 37.6029769,37.9824229 C37.2746525,38.9652186 36.8274522,39.5556798 36.1128894,39.9558524 C34.912372,40.6286125 33.619105,40.3150932 32.9890185,39.1903428 C32.8527246,38.9473654 32.7621524,38.6791323 32.7107701,38.4078511 C32.5875396,37.6183922 32.8252916,37.0462195 33.6883406,36.1631403 L35.370023,34.4618628 L35.0382151,33.8692243 C34.6127869,33.109811 34.1433789,32.9129906 33.5507404,33.2456693 C33.0042589,33.5522215 32.7247042,34.0873815 32.9202183,34.4370425 C32.9546183,34.4980046 32.9872766,34.5197767 33.0687045,34.5938022 L31.5494425,35.9445476 C31.3543638,35.7738538 31.2964498,35.7067955 31.1858472,35.5091042 C30.4869606,34.2633007 31.1810574,32.936069 33.0961375,31.8631365 C34.7826098,30.9182243 35.9334868,31.1912473 36.8017609,32.7409905 L38.4538332,35.6889424 C38.8117677,36.3277378 38.9471907,36.3913125 39.4588366,36.1644466 L39.9369535,37.6937238 Z M46.2069033,35.1206887 L44.4228917,30.2280465 C44.0762786,29.2783444 43.7875797,28.9948707 43.312511,29.1677418 C42.904065,29.3170988 42.4803786,29.9345576 41.9635072,31.1616372 L41.803264,31.5348122 L43.4736249,36.1169832 L41.510646,36.8332877 L38.7360006,29.223914 L40.6998505,28.508045 L41.1583724,29.7677827 C41.7113855,28.4353259 42.31491,27.7521152 43.2802881,27.3998415 C44.654983,26.8986461 45.6042496,27.3680541 46.1293944,28.8080655 L48.1698822,34.4048197 L46.2069033,35.1206887 Z M60.3218016,32.4727573 L57.2854547,28.1318219 L56.1933626,28.2311029 L56.610082,32.8110968 L54.4237205,33.009659 L53.3817044,21.5614162 L57.1974952,21.2143677 C58.8626308,21.0623981 59.6451226,21.2013045 60.3801511,21.7813151 C61.0568301,22.2968802 61.4443748,23.1011441 61.5423495,24.1762539 C61.623342,25.0610749 61.4796456,25.7908781 61.1138732,26.3839519 C60.7311184,26.9787677 60.3540244,27.2583224 59.4239173,27.6049354 L62.7158696,32.2550356 L60.3218016,32.4727573 Z M63.777916,32.4784181 L64.1132075,24.3857022 L66.1841763,24.47192 L65.8488849,32.5642004 L63.777916,32.4784181 Z M74.8660471,27.1551223 C75.0776726,27.5949201 75.1186043,27.88449 75.0349991,28.4004905 C74.7410749,30.2223857 73.1338532,31.2156322 71.0358869,30.8768571 C70.8294867,30.843328 70.7093043,30.8241685 70.4597953,30.7309837 C69.8628023,31.0405838 69.5636526,31.2565639 69.5301235,31.4629641 C69.5018197,31.6349642 69.6311464,31.7085541 70.026529,31.7725642 L72.8299138,32.2254254 C74.394462,32.4779826 75.0310803,33.2339124 74.8229382,34.5232603 C74.5007102,36.5180266 72.3417817,37.6510505 69.6590148,37.2177842 C67.6986486,36.9012168 66.5050981,35.8787957 66.6997413,34.6752301 C66.7998933,34.0564649 67.2301114,33.5787836 68.2860616,32.9382463 C67.5423243,32.5180434 67.2653823,32.1557544 67.3437621,31.6741541 C67.418223,31.2099714 67.7517727,30.8934041 68.6091607,30.5023758 C68.7258595,30.4331403 68.914842,30.3578087 69.1656574,30.2215148 C68.84909,29.8884007 68.7136672,29.7433979 68.5608265,29.4886635 C68.1854742,28.8642377 68.0504868,28.1718827 68.1719756,27.4146466 C68.479834,25.5060981 69.9764531,24.5481226 72.0914017,24.8899456 C72.6757668,24.9840014 72.9914632,25.1054901 73.7060259,25.4856323 L74.8926092,25.6776628 L76.5259575,25.8352933 L76.276013,27.3824237 L74.8660471,27.1551223 Z M80.9404828,35.7481627 L82.6147627,30.816766 C82.9396035,29.8600968 82.893011,29.4581826 82.4144587,29.2953267 C82.0025293,29.1555494 81.2849185,29.3715293 80.1135758,30.0037932 L79.7547704,30.1945174 L78.1858678,34.8128303 L76.2072128,34.1405056 L80.2903657,22.1174774 L82.2694561,22.7898021 L80.3591659,28.4135538 C81.6245644,27.7211988 82.5228842,27.5661808 83.4965356,27.8966825 C84.8812458,28.3669614 85.3280107,29.327985 84.8346533,30.7797533 L82.9191377,36.4204872 L80.9404828,35.7481627 Z M87.9659269,38.5868183 C87.2644276,38.6264436 86.6182296,38.5188891 86.1035354,38.2628483 C85.136851,37.7808126 84.933499,37.0566701 85.4690943,35.9815604 L87.7129342,31.4755918 L86.6365181,30.939561 L87.226544,29.7547195 L88.3957095,30.1030742 L89.4747383,27.9358724 L91.2374133,28.8132908 L90.1575136,30.9804927 L91.7325124,31.7642909 L91.0493017,33.1368085 L89.4747383,32.3530104 L87.8675167,35.5800815 C87.4638606,36.3908771 87.4251061,36.6634647 87.7212077,36.81108 C87.9393649,36.9195055 88.2589802,36.9425839 88.9439327,36.8559307 L88.8611985,38.5075675 C88.534616,38.5389195 88.2306764,38.5628689 87.9659269,38.5868183 Z M7.34314299,76.3867904 L7.73199397,78.5330909 C8.02548283,78.6963822 8.1765817,78.7525544 8.38385276,78.7812937 C8.9007241,78.8531418 9.25430414,78.586215 9.32658775,78.0680374 C9.36229412,77.8089486 9.31874977,77.4871559 9.20205094,77.1893125 C9.15153951,77.0425682 9.09667363,76.928482 8.91335195,76.604512 L7.34314299,76.3867904 Z M36.0262362,35.6323347 L34.5500831,37.2378146 C34.5966756,37.5709288 34.6432679,37.7246403 34.7455972,37.9070911 C35.000767,38.3625649 35.4275015,38.4827473 35.8838462,38.2275775 C36.1107123,38.0995571 36.3423681,37.8705138 36.5087075,37.5979262 C36.5962316,37.469035 36.6537102,37.3571261 36.8008901,37.0148676 L36.0262362,35.6323347 Z M71.8349256,26.3656634 C71.1129604,26.2489645 70.4175573,26.8420385 70.2838761,27.6676392 C70.153243,28.4758222 70.6326663,29.2234786 71.3720492,29.3432255 C72.1109967,29.4629724 72.8016099,28.9034276 72.9348556,28.0786978 C73.0681012,27.2526616 72.5743084,26.4849749 71.8349256,26.3656634 Z M71.9241914,33.7904091 L69.4312779,33.3876239 C69.3428828,33.4969203 69.2745183,33.5918468 69.2148624,33.6349557 C68.9100521,33.9915839 68.7223761,34.2789766 68.6888469,34.4849413 C68.6082899,34.983524 69.2845335,35.4986536 70.229881,35.6514943 C70.8486462,35.7512108 71.5553708,35.6362538 72.1009814,35.3188154 C72.5264096,35.0871596 72.8081415,34.7618833 72.8582176,34.4527185 C72.9109063,34.1261359 72.612192,33.9014471 71.9241914,33.7904091 Z M57.1587407,23.0889517 L55.736147,23.2187138 L56.0239751,26.3756786 L57.4461334,26.2459165 C58.8338914,26.1192024 59.3964844,25.5788171 59.2928488,24.433601 C59.1922614,23.3410735 58.5804635,22.9591896 57.1587407,23.0889517 Z M115.246021,10.6805561 C115.521657,10.8826018 115.423682,10.8516854 115.606569,11.0637463 C115.595683,11.1116451 115.584361,11.158673 115.573475,11.2061363 C115.009576,10.9500956 115.15153,11.074197 115.246021,10.6805561 Z M65.3289655,23.1812656 C64.6492383,23.2039087 64.0805492,22.6713615 64.0579061,21.9916343 C64.0348276,21.3123426 64.5678103,20.743218 65.2475376,20.7205749 C65.9268292,20.6979318 66.4959538,21.2300438 66.5181614,21.909771 C66.54124,22.5894981 66.0091281,23.1586227 65.3289655,23.1812656 Z M1.27175545,98.3679739 C0.59246372,98.3910525 0.0233391757,97.8585052 0.000696118088,97.1783426 C-0.0219469395,96.4986154 0.510600358,95.9299263 1.18945664,95.9068478 C1.8700547,95.8846401 2.4387438,96.4171875 2.46138686,97.0964792 C2.48402992,97.7762064 1.95148262,98.345331 1.27175545,98.3679739 Z M85.9681125,77.7540826 C85.9459049,77.7466801 85.9232618,77.7388421 85.8988769,77.7323105 C85.913682,77.6852826 85.9289226,77.639561 85.9428567,77.5934041 C85.9759504,77.681799 85.9615808,77.6208369 85.9681125,77.7540826 Z M57.5314802,74.0750213 C57.5240777,74.0972288 57.517546,74.1203073 57.5097081,74.1446922 C57.401718,74.0615225 57.4465688,74.108115 57.3925737,74.0319124 C57.4382953,74.046282 57.4857587,74.0606516 57.5314802,74.0750213 Z M57.2584571,74.2161049 C57.2358142,74.2095733 57.2118648,74.2026061 57.1892217,74.1952036 C57.2040268,74.1490466 57.2183964,74.1024541 57.2332015,74.0562972 C57.2654243,74.145563 57.2514901,74.0828592 57.2584571,74.2161049 Z M47.9743682,74.7181712 C47.9508542,74.7112041 47.9273403,74.7046724 47.9042617,74.6968345 C47.9195022,74.6506774 47.9343073,74.604085 47.9478061,74.5583635 C47.9817706,74.6458876 47.967401,74.58449 47.9743682,74.7181712 Z M41.580317,77.8777486 C41.572479,77.9012625 41.5659474,77.924341 41.5581094,77.9474196 C41.4501194,77.8655562 41.4954055,77.912584 41.441846,77.8342042 C41.4875675,77.8485739 41.5337246,77.8629435 41.580317,77.8777486 Z M76.9783831,91.068636 C76.8425248,90.9976587 76.8512337,91.0089803 76.7924489,90.9349548 C76.9287426,91.0054967 76.9209046,90.9919979 76.9783831,91.068636 Z M73.801388,95.8489338 C73.7939854,95.8720123 73.7874538,95.8959617 73.7791804,95.9186047 C73.6716259,95.8371768 73.7164765,95.8846401 73.6620462,95.8062603 C73.7086385,95.8219363 73.7556664,95.835435 73.801388,95.8489338 Z M21.2028715,123.79308 C21.2838639,123.614548 21.0356612,123.540522 21.2163702,123.264887 C21.2777678,123.171266 21.5651604,123.011459 21.6239452,122.937433 C21.7776568,122.74279 21.5965123,122.555549 21.8203302,122.313878 C22.0306494,122.127944 22.102933,121.896288 22.175652,121.665068 C22.876716,120.757603 23.1632378,119.857107 23.9426815,118.950513 C24.0010309,118.765885 24.0593803,118.582128 24.1172942,118.3975 C24.1917551,118.306493 24.3885755,118.343941 24.4591174,118.277753 C24.6742263,118.074401 24.6406972,117.781783 24.8362113,117.559707 C24.9280898,117.510502 25.0195331,117.463039 25.1101053,117.417752 C25.1545205,117.352436 25.0343381,117.252719 25.1279584,117.118603 C25.4227536,116.689691 25.8303287,116.466309 26.1212049,116.137984 C26.1638784,115.998642 26.2074227,115.860607 26.2514024,115.722136 C26.4660761,115.513558 26.9224207,115.367249 27.1353526,115.087695 C27.3508971,114.805963 27.2912413,114.530327 27.535525,114.300849 C27.7332164,114.236403 27.7924367,114.128413 27.851657,114.020423 C27.9383102,113.975137 28.066766,114.097497 28.1503712,114.037405 C28.1839004,114.013456 28.1137939,113.851035 28.2374599,113.76177 C29.0486909,113.174792 29.6552636,112.463713 30.4055326,111.70517 C30.6872645,111.422132 31.1505764,111.480917 31.4536449,111.275823 C31.7392959,111.080309 31.7919845,110.650526 31.9909821,110.53165 C32.0911341,110.536876 32.1904152,110.543407 32.2901318,110.550374 C32.349352,110.440643 32.4094433,110.332653 32.4682281,110.223792 C32.5453016,110.159782 32.7247042,110.183731 32.8100511,110.103609 C33.522872,109.54929 34.2635613,109.279751 34.8257187,108.532965 C35.0534556,108.620489 34.9450302,108.733704 35.1239975,108.550818 C35.4566762,108.459811 35.5925346,107.978646 35.9391475,107.89504 C36.0684742,107.849319 36.3863479,107.746119 36.7185913,107.834514 C37.1466321,107.565845 37.0695586,107.822757 37.2380752,107.392539 C37.7192402,107.314159 37.9922633,107.172204 38.2652863,107.028508 C39.1744921,107.087293 39.8472523,106.735019 40.5988276,106.622675 C40.7303314,106.531667 40.7568936,106.546908 40.8975417,106.640528 C41.0638811,106.519039 41.237623,106.509024 41.4218157,106.424548 C40.922362,106.228163 40.8470302,105.899839 40.5139161,105.683859 C40.2596172,105.517084 40.1011158,105.590238 39.891232,105.486603 C40.010979,105.828426 40.1059056,106.010441 40.2012678,106.192457 C39.9378245,105.946867 39.4148569,105.801428 39.1113529,105.546259 C38.9036463,105.369904 38.7634335,104.975392 38.5944815,104.775524 C38.3467142,104.59525 38.0985114,104.417589 37.8507441,104.235574 C37.794572,104.091878 37.7388352,103.949052 37.6826629,103.805356 C37.4301059,103.482692 37.0525764,103.319401 36.796971,102.991948 C36.4137808,102.502945 36.5648798,102.158509 36.0197046,101.836281 C36.2626821,101.721324 36.1751578,101.896807 36.3628341,101.714792 C36.0410413,101.376888 34.8265897,99.9804209 34.8344276,99.5606534 C35.1030961,99.5920054 35.0225392,99.6242282 35.1766862,99.4404711 C34.7007464,99.0816657 33.6478443,97.752257 34.0049079,96.6375219 C34.1795207,96.5369344 34.226984,96.4154456 34.3175562,96.1289239 C34.0192775,95.9891465 34.0245029,96.1772582 33.9931509,95.9495212 C33.7571406,95.5497841 33.8146191,95.2732776 33.7440772,94.8073531 C33.5703354,94.6453681 33.6095252,94.5173479 33.6670038,94.3257528 C33.9099812,94.1524462 33.7484317,94.2330032 33.892999,94.0936614 C33.6835507,93.9564968 33.6600367,94.0457626 33.5685936,93.9142587 C33.4201074,93.4888305 33.8115711,93.3708253 33.8520673,93.0159389 C33.8041685,92.9258021 33.7567051,92.8339236 33.7092418,92.7429159 C33.750609,92.4511688 33.7915406,92.1602926 33.8320369,91.8685455 C33.5150341,91.3346919 33.5128568,90.6210002 33.8268116,90.1933947 C33.623024,89.9552072 33.5790442,90.013992 33.5681582,89.8080273 C33.7610596,89.7000373 33.8629533,89.5323916 33.9709433,89.2502242 C33.7458191,89.1592166 33.74669,89.1814242 33.6038645,89.2127761 C33.7540926,88.748158 33.6003809,88.6719554 33.7227406,88.1080562 C34.0336472,88.1189423 34.0414852,88.0749625 34.1520878,87.7100609 C34.3223461,87.5763798 34.3040575,87.4300708 34.5117641,87.2915998 C34.7991567,87.3316605 34.7752073,87.3408049 34.8757947,87.1000047 C34.7834808,87.0721363 34.6911667,87.0429616 34.5997236,87.0142223 C34.5666299,86.693736 34.5749033,86.705493 34.5914501,86.5557004 C34.6846351,86.624936 34.693344,86.6384347 34.8461846,86.7107183 C35.0112176,86.4420497 35.1601392,86.4189712 35.3656685,86.266566 C35.2750963,86.0174924 35.4305497,85.9970266 35.2681293,85.8559428 C35.166671,85.8807631 35.1958457,85.8441859 34.9907518,85.7684187 C35.0887265,85.4231121 35.2576787,85.0751928 35.3391066,84.6602152 C35.9400184,84.3632428 36.2644238,83.8189385 36.4621151,83.26549 C36.5637185,83.2785533 36.9640363,82.9731623 37.663068,82.349317 C37.8363745,82.0654079 37.5999287,82.0201218 37.58643,81.8712002 C37.5372249,81.3338629 38.1477165,80.4255279 38.5239397,80.3397457 C38.7778032,80.4198672 38.9149679,80.3854672 39.052568,80.3532444 C39.0499553,80.5317762 39.0743401,80.5300344 39.1035148,80.6737307 C39.4300974,80.5531129 39.6460774,80.3388747 39.8054497,80.13291 C39.5163152,80.1015581 39.1165782,80.4503483 39.0739047,80.2844443 C39.6430293,80.0079377 39.9164877,79.398317 40.3358198,78.931957 C40.5095617,78.882752 40.622777,78.590134 40.6920124,78.2840173 C40.7847618,78.3123211 40.8762051,78.3419312 40.9689545,78.3706705 C41.0786862,78.1668831 41.1217951,78.0419107 41.2598307,77.9304372 C41.1766609,77.8011105 41.1958204,77.8616372 41.1866761,77.67788 C41.3787068,77.8119966 41.4357497,78.0075107 41.4714562,78.223926 C42.0510313,77.6939915 42.584885,77.6164826 42.9454321,77.1666695 C42.8330877,77.0595504 42.7847535,77.0107807 42.7325002,76.8723097 C42.9510929,76.858811 43.0508094,76.8135249 43.1875386,76.635864 C43.4623035,76.6920361 43.4165818,76.7338387 43.5559237,76.6750539 C43.3312349,76.3924511 43.415711,76.4233675 43.1365918,76.3145068 C43.5485213,76.2278534 43.6147087,76.2814131 43.8903443,76.0959141 C43.623853,75.9361063 43.712248,76.0924306 43.6573821,75.8694836 C43.9769975,75.8847241 43.9003595,75.7728151 44.1111141,75.6339086 C44.2252003,75.7532201 44.2243294,75.7131594 44.3884915,75.7201264 C44.5853121,75.481939 44.6419196,75.1893209 44.8361274,75.0242879 C45.1422442,75.2215437 45.0211909,75.2054324 45.3673684,75.2668299 C45.4022038,75.0752348 45.4636014,75.0438828 45.5241281,75.0129664 C45.446619,75.2829413 45.4431356,75.3695945 45.3712874,75.4963086 C45.6003307,75.492825 45.6221028,75.423154 45.6447459,75.354354 C45.7370598,75.3830933 45.8293738,75.4127034 45.9216879,75.4410072 C45.9909233,75.3047135 46.1250399,75.015579 46.2339008,74.9315385 C46.65541,74.6959635 47.1074002,74.5871027 47.5376183,74.6567736 C47.8977301,74.780875 48.2909355,74.9027992 48.5238977,74.6628698 C48.6466927,74.5962471 48.6893662,74.3963785 49.0473007,74.4486317 C49.1631287,74.484338 49.2789566,74.5200445 49.3943491,74.5566216 C49.5127897,74.3959431 49.7805874,74.3889759 49.8271799,74.3889759 C50.1624713,74.51569 50.4524766,74.3371581 50.6061881,74.3293202 C51.3076875,74.4656139 51.8842145,74.2248138 52.3318504,74.6441458 C52.5582809,74.5940698 52.9641142,74.4747583 53.2240739,74.4686621 C53.5702515,74.577523 53.916429,74.6859483 54.2626064,74.7952446 C54.5382422,74.6219382 54.6919537,74.8074371 54.8809362,74.7621509 C55.274577,74.592328 55.4727037,74.7760851 55.5471646,74.819194 C55.8040761,74.8048244 56.3148513,74.7773914 56.5778591,74.6872547 C56.7023959,74.5940698 56.8504467,74.4220696 57.0289785,74.2213302 C57.5998449,74.5818774 57.86024,73.9348084 58.4019316,73.9679021 C58.5787216,73.9787883 58.8356333,74.2666164 59.072079,74.2544239 C59.1935678,74.1917201 59.3137501,74.1285808 59.4361097,74.0650061 C59.6734264,74.0554263 60.0008798,74.3362873 60.3357358,74.3480443 C60.4267434,74.3014518 60.5168803,74.253553 60.6078879,74.2060897 C60.907473,74.5596698 61.927717,74.8644802 62.5538846,75.2742324 C62.7459151,75.3081969 62.9375102,75.3439034 63.1291053,75.3787388 C63.8375718,75.7310126 65.3799123,76.5753373 66.6013311,77.1562188 C67.1661012,77.4253229 67.5937067,78.1028728 68.0622438,78.0715209 C68.3448466,78.3650098 68.8961179,78.5579112 69.1774144,78.8792684 C69.2105081,79.0164331 69.2427308,79.1540333 69.2758246,79.290327 C69.4212627,79.3107929 69.5671362,79.3312587 69.7130097,79.3512891 C69.6995111,79.474955 69.6868832,79.5973146 69.6733844,79.7196742 C69.996048,79.8550971 69.9394404,79.936525 70.161081,80.1006873 C70.1110051,80.1951784 69.9403112,80.3075229 70.0526556,80.4477356 C70.1615165,80.5822876 70.5638662,80.5657408 70.6278764,80.552242 C70.785507,80.8557461 70.9448792,81.1588148 71.1029452,81.4614479 C71.219644,81.6016606 71.369872,81.5855493 71.4735075,81.7318582 C71.6293963,81.9469673 71.3655176,82.2940157 71.4412847,82.5578944 C71.4817809,82.6954946 71.728242,82.8892668 71.7482723,83.034705 C71.6964545,83.1200518 71.6446368,83.2049633 71.592819,83.2898748 C71.7321608,83.5467865 72.150622,84.704195 72.3300247,84.8147977 C72.5621161,85.6917807 72.9918987,86.373685 73.0132354,87.2354276 C73.0284759,87.8646434 72.5943388,88.3231653 73.0837773,88.7024365 C73.2083141,88.8657277 73.6093575,88.921029 73.7068968,88.8988215 C73.82795,88.3292615 75.0410954,86.92844 75.3424223,86.5992447 C75.5261794,86.3985053 75.43343,86.0096544 75.4438806,85.7945453 C75.6224123,85.7740795 75.651587,85.8032542 75.786139,85.6739275 C75.7539163,85.5759528 75.7804783,85.5776945 75.8035568,85.3752134 C75.9180785,85.4810261 75.9651064,85.5267476 76.0369545,85.600773 C76.2255015,85.1365904 76.359618,85.3547474 76.5098461,85.0647422 C76.9805604,84.6846 77.5653609,83.1897228 77.8436092,82.5178337 C77.9664043,82.5304614 78.0878929,82.5448311 78.2111235,82.5578944 C78.6544049,81.1892958 79.8092008,80.1559885 80.5625179,79.1906104 C80.892584,78.7686658 80.8364119,78.3885237 81.1629944,78.0109943 C81.4207769,77.7118447 81.8954102,77.3708924 82.0865699,77.0086036 C82.2254764,76.7473375 82.0809092,76.7412413 82.4201195,76.4290283 C82.501112,76.1756003 82.585588,76.1512154 82.6683222,76.1263951 C82.8394515,75.9665874 83.0872189,75.0530271 83.213062,74.9093308 C83.5736091,74.5666368 83.6842118,74.2970974 83.7939434,74.0275579 C84.051726,73.8546869 84.0791589,73.6866058 84.1070273,73.5172182 C84.3691643,73.1122559 84.7924152,72.9354659 85.009266,72.5849338 C85.2130536,72.2553031 85.3462993,70.9694388 85.371555,70.9498439 C85.4190183,70.9128312 85.6005982,70.8880109 85.6441426,70.8070184 C85.6498033,70.6315347 85.6541578,70.4538738 85.6585122,70.2788256 C85.7969832,70.0933267 86.0565075,70.0732963 86.0617328,69.721458 C86.0630392,69.6165161 85.9132466,69.5651337 86.0316872,69.3313007 C86.0713125,69.255969 86.2764064,69.0073308 86.2764064,68.7996242 C86.2751001,68.5540341 86.1292265,68.2731731 86.1692874,67.9291729 C86.3513027,66.3702854 86.8551107,64.8701828 87.0310299,63.256865 C87.2086908,62.9342014 87.3867871,62.6084898 87.5648834,62.2849553 C88.076094,62.0219474 87.8191824,61.6195977 88.0991726,61.3113038 C88.3830816,60.9995264 88.7344845,60.9185339 88.9757201,60.2192118 C89.5635688,60.2614498 89.7525512,59.9771052 90.1840757,59.7619961 C90.215863,59.8220874 93.0710655,59.2703805 93.5591976,59.9113532 C94.0190258,60.244032 94.4840794,61.0008327 94.5733453,61.5233647 C94.6591277,62.0219474 94.9447785,63.2908295 95.1089407,63.7314984 C95.2739737,63.630911 98.1470293,59.8360216 99.6170863,58.547109 C99.7525093,58.428233 100.771447,57.7145412 101.065807,57.6061158 C101.655397,57.3892649 102.978274,57.6226626 103.020948,57.6405158 C105.435481,58.6289723 105.141992,60.0084572 105.020068,61.9204891 C104.692179,62.3694313 103.570042,64.1490886 103.615328,64.1634582 C103.903591,63.8403591 105.067967,62.8789001 105.399775,62.6481151 C106.184879,62.0985855 107.033559,61.5965192 108.089509,61.5934712 C108.250623,61.6435471 109.137186,61.5860686 109.469865,61.798565 C109.78469,62.0001753 110.252356,62.390768 110.40302,62.7003683 C110.436113,62.8379685 110.863719,63.5037614 111.019608,63.8830326 C111.853046,65.9165534 108.365145,69.0839688 108.472264,69.3186728 C109.956255,69.0482624 111.402362,68.4220949 112.84368,69.932648 C114.703459,71.8825637 113.492491,73.8507679 112.899852,74.5905862 C112.863275,74.6319534 111.750717,75.9247848 111.593087,76.0806736 C111.470292,76.2004206 110.778807,76.8135249 110.71262,76.9445933 C110.333349,77.2328568 109.289591,77.8411714 109.260416,77.9330499 C109.050532,78.1337894 108.64078,78.4072478 108.376902,78.5674909 C108.264993,78.5505087 108.147858,78.451663 107.987615,78.597101 C107.72243,78.8344178 106.943422,79.8516136 106.586794,79.9051732 C106.382571,79.9212845 105.980221,80.1459733 105.971512,80.1686164 C105.472059,80.5779332 103.600087,82.388507 103.530852,82.3662993 C103.175965,82.7847604 103.290487,83.1426949 102.953454,83.4779863 C102.749231,83.6813385 102.344268,83.6708878 102.133949,83.90385 C101.932339,84.1307161 101.98285,84.338858 101.870071,84.5051974 C101.769919,84.6506354 101.432015,84.846585 101.349716,84.9502206 C101.235194,85.092175 101.357118,85.3133804 101.175103,85.5027982 C100.895548,85.7453402 100.868115,85.9138568 100.841118,86.0828088 C100.774495,86.1816545 100.532388,86.2495837 100.454879,86.3414623 C100.201451,86.6440955 100.177502,86.8866374 99.8953347,87.1544351 C99.75817,87.1875288 99.6205699,87.2201871 99.4838407,87.2532808 C99.2430404,87.4888556 99.3357899,87.8049875 99.334919,87.9669725 C99.1529036,88.1803398 98.6930754,88.4642489 98.4984323,88.6932922 C98.0320723,89.2397736 97.8470089,89.9042603 97.4041629,90.4773039 C97.2630793,90.6619318 96.4906026,91.6695479 96.3573569,91.8415481 C95.6850323,92.7133058 95.1093762,94.4603048 94.4048286,94.4219858 C94.2720185,95.3608017 94.0246866,95.3285789 93.5578912,95.904235 C93.4625292,96.128053 93.3671671,96.3505646 93.2713695,96.5752535 C92.8076223,96.9314461 92.4488169,97.3050566 92.1662141,97.6734417 C92.2807357,97.8567633 92.0939305,97.9233862 92.0791253,97.948642 C92.0577886,98.09408 92.0377583,98.2395181 92.0172925,98.3849563 C91.666325,98.5687133 91.4599248,99.0128657 91.4098489,99.1077923 C91.0109826,99.5223344 90.7379596,99.733089 90.4862734,100.108877 C90.2955492,100.396269 90.5089164,100.516452 90.2903239,100.731561 C90.0316705,100.827794 90.0011894,100.921414 89.9733211,101.011551 C89.8762171,101.14828 89.6484803,101.437415 89.5701004,101.571096 C89.4547079,101.768352 89.6010169,102.047035 89.4207433,102.284352 C89.3266875,102.408889 88.7993655,102.753325 88.8616339,103.098631 C88.6491376,103.207927 88.6669908,103.314611 88.6835376,103.420859 C88.3665348,103.625082 88.2772689,103.826257 88.1888739,104.026997 C88.0839321,104.12323 87.8213597,104.18724 87.7116279,104.333113 C87.5452885,104.554319 87.5161138,104.904851 87.4947771,105.023727 C87.4085593,105.490086 87.1216021,105.976477 86.8738348,106.273449 C86.6521941,106.167636 86.7009638,106.182442 86.4579863,106.144122 C86.6051662,106.420194 86.5947156,106.41192 86.6038599,106.646624 C86.3286596,106.54952 86.2380874,106.4903 86.0765378,106.633125 C86.272052,106.972336 85.9493884,107.173075 85.7669377,107.372073 C85.7499553,107.669916 85.6589476,107.71738 85.5688108,107.764843 C85.5627147,107.984306 85.6075653,107.97342 85.575778,108.222494 C85.4477576,108.126261 85.4538538,108.140195 85.3201726,108.067041 C85.1978131,108.323952 85.1516561,108.300874 84.9827041,108.417137 C85.2182789,108.475922 85.1952004,108.32134 85.2374384,108.573897 C85.2165372,109.094252 84.8337824,109.649007 84.4518985,109.618961 C84.3804858,109.750029 84.401387,110.14367 84.3473921,110.194617 C84.1993413,110.409291 83.9707335,110.427144 83.8479385,110.569969 C83.7390776,110.699296 83.7068548,111.05636 83.7212244,111.214426 C83.6724548,111.264502 83.4168496,111.298902 83.3798368,111.33635 C83.2931836,111.612421 83.2052239,111.889798 83.1185707,112.166305 C83.0144998,112.295632 82.75454,112.411024 82.619988,112.540351 C82.5877652,112.915268 82.3256283,113.491359 81.9981748,113.79138 C81.9820635,113.884129 82.0460736,114.141912 81.915876,114.298236 C81.8309645,114.397952 81.5069947,114.564727 81.4168579,114.673588 C81.2766452,114.839057 81.1512374,115.149528 81.0828728,115.251857 C80.9639967,115.545346 80.8486042,115.838399 80.730599,116.130146 C80.5908217,116.314774 80.1571201,116.586927 79.984249,116.809003 C79.8274895,117.007129 79.9624769,117.24793 79.8793073,117.383788 C79.788735,117.430816 79.6972919,117.47915 79.6058487,117.526613 C79.5710132,117.718208 79.5361778,117.908497 79.5013424,118.100963 C79.2400763,118.467171 78.8930278,118.936144 78.5128857,119.311931 C78.4558427,119.531395 78.596491,119.8214 78.4118629,120.11576 C78.3121463,120.273826 77.7987586,121.205239 77.6524495,121.321503 C77.5649254,121.390303 77.3341405,121.362434 77.2400846,121.42209 C77.2409555,121.676389 76.5115878,123.254001 76.2882053,123.479125 C76.1741191,123.518315 76.0604685,123.560117 75.9472531,123.598436 C75.8740987,123.829657 75.7974607,123.831399 75.7208226,123.83314 C75.7208226,123.83314 75.5692883,124.879946 75.5109389,124.985324 C75.0371764,125.821375 74.5843152,126.977913 73.6237271,127.355878 C73.7068968,128.06565 73.0833419,128.922168 72.7197466,129.50479 C72.519878,129.825277 72.6165464,130.09264 72.3413463,130.223708 C71.4539125,131.08066 70.6348435,133.37806 70.5730105,134.153584 C70.3078255,134.35955 70.4336686,134.525018 70.4197344,134.638233 C70.392737,134.866405 70.1754507,134.83636 70.0818304,134.988765 C70.0091112,135.104158 70.0722506,135.49388 70.0678962,135.515216 C69.9333442,135.701586 69.7992276,135.889262 69.6638046,136.074761 C69.7029945,136.517171 69.576716,136.755795 69.4504374,136.994853 C69.4495664,137.021415 69.5736678,137.275715 69.5710552,137.335805 C69.5558147,137.756879 69.3002094,138.12178 69.1530295,138.423107 C69.0411206,138.653458 69.2945486,139.159443 69.0128167,139.594014 C68.937043,139.71145 68.4443718,141.076885 67.9899608,142.220856 C66.314007,142.438645 64.6174569,142.57891 62.9046059,142.638314 C63.6288812,140.64401 65.5317247,135.610827 65.5236086,135.45469 C65.5179479,135.335814 65.3159022,135.085869 65.308935,134.930851 C65.3050161,134.855955 65.6233252,133.204319 65.6233252,133.204319 C66.4907285,131.02623 67.7543852,126.686166 69.7469744,124.690093 C70.3221951,124.830741 70.2455571,124.822032 70.784636,125.017546 C70.8120689,124.849465 70.8399373,124.680949 70.8682412,124.512432 C71.1199274,124.392685 71.0668033,124.360462 70.9771021,124.165384 C71.3267631,123.925019 71.3646467,123.968128 71.427786,123.699459 C71.5954317,123.729069 71.6093659,123.721667 71.7260647,123.717312 C72.0051839,123.03715 72.3487487,122.507215 72.6174173,122.095286 C72.7750478,121.853179 72.7101668,121.581898 72.8138023,121.472166 C72.919615,121.455184 73.0267342,121.438202 73.1334178,121.422961 C73.2805977,121.262718 73.1647698,120.782424 73.3250129,120.569927 C73.4229877,120.438859 73.7648107,120.284712 73.8671399,120.055233 C73.9638084,119.838382 73.7478284,119.435162 74.0117072,119.112063 C74.1327604,119.048053 74.25512,118.985349 74.3761733,118.921339 C74.497662,118.775901 74.4619557,118.359181 74.7062395,118.114462 C74.8203256,117.998634 75.0863815,118.092254 75.2091766,117.967282 C75.4504122,117.721692 75.3842248,116.997114 75.6698757,116.743251 C75.7073238,116.709286 76.017795,116.599554 76.124914,116.505499 C76.0160532,116.36485 76.0108279,116.367463 76.0042962,116.164111 C77.0367326,115.500931 77.3811684,114.050904 78.1310018,113.030225 C78.7976658,112.123631 79.3559042,111.103823 80.0530491,110.061371 C80.3713582,109.587609 80.519409,108.833856 80.7623864,108.536449 C80.8721182,108.400155 81.1791058,108.242089 81.3045135,108.020013 C81.459096,107.744377 81.224392,107.701268 81.3180122,107.492691 C81.535734,107.011526 82.181061,106.313945 82.485436,105.957753 C82.677902,105.734806 82.4797753,105.477023 82.7027222,105.265398 C82.7575882,105.216193 82.9844542,105.251899 83.0454163,105.145651 C83.0454163,105.145651 83.0994112,104.721093 83.1721304,104.50163 C83.3711279,104.484648 83.4063988,104.46244 83.5357256,104.312212 C83.4747635,104.188546 83.4347026,103.954713 83.6406674,103.73612 C83.9681209,103.652951 83.8997563,103.477032 83.8884347,103.433487 C83.9755234,103.3673 84.1497008,103.410409 84.2306933,103.312869 C84.3582781,103.158722 84.3251844,102.811674 84.3351997,102.736342 C84.3700352,102.476818 84.5707746,102.505557 84.6739746,102.386681 C84.6739746,102.386681 84.6286886,102.181587 84.6918278,102.09058 C85.4664817,101.679086 85.8540263,100.495986 86.3286596,99.7892612 C86.4087812,99.5798129 86.5807814,99.422618 86.6182296,99.3485925 C86.7701992,99.2889368 86.5964573,99.2201367 86.5455104,99.0969063 C86.9735514,98.9976252 86.7357992,98.6462223 87.0136121,98.3340094 C87.1355363,98.2686928 87.2561541,98.2064244 87.3772074,98.1419788 C87.4142201,98.0270218 87.4503618,97.9111938 87.4873745,97.7975431 C87.7839115,97.4034668 88.0586763,97.0899475 88.3630513,96.7037093 C88.6857149,96.2948278 88.7188085,95.8319515 88.9408847,95.592893 C88.8616339,95.3882347 88.9217252,95.2928726 89.0018468,95.1557079 C89.3105761,94.8530747 89.8566222,94.1319804 89.8566222,94.1319804 C89.8474778,93.9260157 89.8048044,93.9848005 89.8274475,93.7413877 C90.1975743,93.5706939 90.1222427,93.5432609 90.161868,93.162248 C90.2537466,93.1914227 90.3456251,93.2201619 90.4383746,93.2497721 C90.6826584,92.5974779 91.0575751,92.2830877 90.9426181,91.8881404 C91.2317524,91.5558972 91.7660416,90.5387013 91.8735961,90.4102456 C91.9807152,90.4707721 91.6536972,91.4008794 91.7616871,91.460535 C91.7760567,91.4148134 92.2267407,90.4968988 92.2415457,90.4511772 C92.085657,90.3005138 92.0255658,90.3318657 91.9646038,90.3623468 C92.2106293,90.1184985 92.4749434,89.929516 92.6195106,89.7322601 C92.4444624,89.5776778 92.4331408,89.5019106 92.4723308,89.2306293 C92.782802,89.233242 92.7767057,89.2201787 92.909516,89.2920268 C92.9530603,89.0773532 92.9948629,88.8613733 93.0362299,88.6471351 C93.2892226,88.3819501 93.455562,88.3714995 93.6001292,88.0645119 C93.4573037,87.9081877 93.517395,88.0544966 93.5274102,87.8128256 C93.6806862,87.7871345 93.8509447,87.7139799 93.9123422,87.5533013 C93.9158257,87.5485114 93.971127,86.8875084 93.971127,86.8875084 C94.2694057,86.635822 94.7061555,86.4224547 94.8733657,85.9534821 C95.1346318,85.0307776 96.1431188,84.039273 96.7814788,83.5136928 C97.0427449,83.2985837 96.980041,82.8470288 97.314897,82.5417831 C97.6332062,82.3366892 97.7011353,82.2056206 97.7664519,82.0736814 C97.9044874,82.0405876 98.0412166,82.0083648 98.1783813,81.9752711 C98.4631613,81.7505823 98.6852375,81.3090427 98.9199415,81.068678 C99.312276,80.6441206 99.8178257,80.5957864 100.189694,80.1747126 C100.653006,80.0588847 100.836763,79.8581452 101.099771,79.7000793 C101.36844,79.6661147 101.397179,79.5198057 101.693281,79.5063069 C102.143964,79.0395116 103.234315,78.2178299 103.737687,78.324078 C103.810407,78.0928576 103.88269,77.8638144 103.954974,77.6325939 C104.467491,77.5006545 105.1986,77.1165935 105.593547,76.7795603 C105.690216,76.6315096 105.786449,76.4852005 105.883553,76.3380206 C106.467047,75.9665874 107.243442,75.7523493 107.794714,75.3421615 C108.116506,75.1017968 110.013298,73.7188285 110.173541,73.5807929 C110.403891,73.3817953 111.054443,73.068276 111.15895,72.3833235 C110.863719,71.5498849 110.470078,70.7504107 108.333357,71.9369941 C108.07601,72.0798195 105.469446,73.9195679 105.156362,74.0554263 C104.893354,74.1712543 104.165728,74.4656139 104.065141,74.6254218 C103.723318,74.6567736 103.427652,74.6236799 103.280907,74.4542925 C103.17074,74.273148 103.295712,74.300581 103.253039,74.0650061 C103.181626,73.9670313 103.11152,73.8686211 103.040543,73.7697754 C102.808451,72.9219671 103.233008,72.4020476 103.672371,71.7632522 C103.738558,71.5555456 105.848717,69.2786121 105.992849,69.2228753 C106.421325,68.8684243 106.63208,68.3698416 107.003513,67.943978 C107.233427,67.6814056 108.404334,66.4800172 108.207079,65.8124824 C108.226238,65.48111 108.185742,65.2394389 107.827372,65.0848564 C107.682805,64.8984866 107.34882,64.8836816 107.135452,64.8671348 C106.410004,65.2620819 105.618367,65.7698089 105.002215,66.3258703 C104.787106,66.5205134 103.409799,67.5703675 103.304857,67.6165245 C103.168563,67.6757448 101.580065,69.3852957 100.461847,69.1566878 C100.387821,69.0952903 100.027274,69.1462372 99.885755,69.0508751 C99.862241,68.9672699 98.7300881,68.4347226 99.5304331,67.0386911 C100.059932,66.1146801 100.482312,65.0582945 101.064936,64.0977062 C101.563518,63.2760245 102.187944,62.2387983 102.256309,61.2786456 C101.956724,60.9215819 101.858314,60.5871615 101.04926,60.5187968 C100.965219,60.5849842 100.486231,60.8797794 100.391305,60.9198402 C100.291588,60.9141794 99.7498966,61.5046407 99.5800737,61.8055321 C99.4285393,61.8847828 98.9404073,62.6363582 98.6821893,62.968166 C97.823495,64.072886 96.9669778,65.4001175 95.8705312,66.3428525 C95.3288395,66.8100833 94.4248591,67.9640084 93.6484634,67.8490513 C93.5065089,67.6483119 93.4155013,67.6635524 93.2073592,67.5581751 C93.2334859,67.2355115 93.1577187,66.8623365 92.8720678,66.6916427 C92.8951463,65.6639962 92.7653842,63.5925919 92.6743765,63.2080953 C92.6016575,62.899366 92.3599864,62.9851484 92.4331408,62.5227074 C92.2955408,62.4800339 92.1566343,62.4356188 92.0190342,62.3929453 C91.7991353,62.1207931 91.5152262,62.056783 91.231317,61.9927727 C90.9687447,62.3302414 90.5855544,62.5048542 90.3295137,62.925928 C89.895812,63.6400552 90.1226781,65.5551354 90.147063,65.6831557 C90.177544,65.8455761 89.8914576,67.166276 89.7873867,67.5468536 C89.9998831,67.7462866 90.2084605,67.9269956 90.1679642,68.2753504 C90.1714478,68.3310872 90.1109211,68.4765252 90.0364604,68.690328 C89.9201969,68.5779835 89.9419691,68.5087481 89.9637413,68.4390771 C89.7151031,68.6006266 89.7421005,68.6581052 89.7634373,68.8327179 C89.9258577,68.8392496 89.9397919,68.8758268 90.1318225,68.8723433 C90.0425565,69.4331944 90.3495441,69.1771537 90.2389415,69.7423592 C90.0686831,69.6387237 90.0364604,69.5781971 90.0051084,69.5163641 C89.7812904,69.8642834 89.7830323,69.8311897 89.6702524,70.0959393 C89.7643082,70.1664811 89.7725817,70.1799799 89.9249867,70.2522635 C90.0477818,70.1952204 90.0782628,70.1960913 90.2467795,70.2013166 C90.2951137,70.4220864 90.2999036,70.6154233 90.2798732,70.8205172 C90.0747794,70.8601425 89.8479133,71.017773 89.8718627,71.148406 C89.9228096,71.2246086 90.030364,71.3086493 90.1056958,71.3744011 C89.8801361,71.537257 89.5992751,71.4810848 89.3989712,71.6840014 C89.4934623,71.9722649 89.1033051,72.5810149 89.3750218,72.9694304 C89.2548393,73.0256026 89.0867582,73.0177647 88.9639632,73.068276 C89.1986672,73.2520332 89.4590623,73.1105141 89.542232,73.4022611 C89.5687941,73.5037194 89.5313459,73.4736739 89.4560142,73.6796386 C89.2173913,73.6352234 88.9630922,73.6413196 88.815477,73.7815323 C88.9308695,73.9970768 88.8729556,73.9430819 88.7540795,74.2187176 C88.4888944,74.2300391 88.5241654,74.2365707 88.2733499,74.2962265 C88.2284993,74.5905862 88.1901802,74.8139687 87.9384939,74.8744954 C87.8753546,74.7948092 87.8396483,74.7843586 87.6841949,74.719042 C87.7834761,75.1065867 87.7473342,75.4462325 87.5862202,75.7532201 C87.3497744,75.7793468 87.3210351,75.8729671 87.2922959,75.9648456 C87.0597692,76.000552 87.0706552,75.9631039 86.8329031,75.9726836 C86.8041638,76.7534337 86.3243052,76.8457477 86.2206696,77.6800573 C85.9811757,77.555085 85.9493884,77.4941229 85.917601,77.4327254 C85.7530035,78.1020019 85.4730133,78.3811211 85.348041,79.0046762 C85.1420763,78.9067014 85.1982485,78.901476 85.0018636,78.8949444 C85.0149269,79.1679675 85.1115953,79.1109244 85.0558585,79.4440385 C84.8977926,79.4771322 84.522005,79.5028235 84.3939846,79.6160387 C84.771514,79.7161906 84.6069163,79.7518971 84.8564254,79.8381149 C84.7205671,79.9774568 84.6178025,80.2043227 84.4967491,80.2570114 C84.3186528,80.3336494 84.1004957,80.1977911 83.9472195,80.3123127 C83.7678169,80.4459939 83.5361611,80.9715741 83.7991689,81.0260045 C83.5696902,81.010764 83.5810117,81.0037968 83.4307838,80.9859437 C83.3545811,81.145316 82.5969095,82.5099956 82.5477044,82.55354 C82.4619221,82.5875045 82.3264992,82.5936007 82.2276535,82.6053578 C82.2211219,82.7033325 82.2154612,82.8034845 82.2089294,82.9040719 C81.9494052,82.9236668 81.9202305,82.9389075 81.8893141,82.954148 C81.9694356,83.2119305 82.0774256,83.7179156 81.6964125,83.8071816 C81.6489492,83.745784 81.473901,83.7187866 81.3288983,83.7679917 C81.5008984,83.9600222 81.577101,84.1677287 81.7525848,84.3571466 C81.5527162,84.3749998 81.4708529,84.3532276 81.362863,84.3863213 C81.4887061,84.4834252 81.4843516,84.469491 81.6180328,84.5417746 C81.54662,84.6967925 81.5322504,84.704195 81.4612731,84.7969445 C81.3341237,84.592286 81.3254148,84.4612176 81.0867918,84.2996681 C80.7793688,84.6711014 80.8668929,84.9985548 80.8764726,85.4492387 C80.6766041,85.354312 80.5551154,85.296398 80.3434899,85.2071322 C80.416209,85.4492387 80.4680268,85.6090464 80.4462545,85.8463631 C80.2768671,85.8999226 80.2742544,85.8960036 80.1518948,86.058424 C80.0025376,86.2913863 79.9663959,86.4063433 79.9306895,86.5208649 C79.676826,86.5517814 79.5035195,86.6484499 79.1987091,86.6706574 C79.2740408,86.9497768 79.3432764,87.078668 79.4826183,87.2175745 C79.4164309,87.2524099 79.218304,87.2310731 79.1625674,87.2685213 C79.1480525,87.3149686 79.0174196,87.7302364 78.7706683,88.5143248 C78.6430833,88.6105579 78.5350934,88.4176564 78.476744,88.7263859 C78.4536655,88.8726948 78.5276908,88.9301733 78.5063541,89.1148014 C78.3056147,89.1796825 78.2433463,89.2737382 78.0979081,89.4431258 C77.8897662,89.3725839 77.9250371,89.3307813 77.8214017,89.3564724 C77.6524495,89.4618497 77.571457,89.860716 77.5784242,89.8890198 C77.4978672,90.2861442 77.4874165,90.3632177 77.3384949,90.6501749 C77.229634,90.3619114 77.249229,90.4211316 77.2392138,90.2382454 C76.9923173,90.513881 76.7480336,90.5913899 76.5629702,90.9375675 C76.7824337,91.0777803 76.8416539,91.1269853 77.0045098,91.2284438 C76.8007222,91.3934768 76.7319222,91.3712691 76.6618158,91.3508033 C76.5934512,91.1883829 76.6308993,91.2327981 76.4288536,91.1239373 C76.2990915,91.2828741 76.1301394,91.3420944 76.1597495,91.4944996 C76.2329041,91.7470568 76.3017041,91.7683935 76.3713751,91.7906012 C76.3278308,91.9273304 76.2834154,92.0671078 76.2398711,92.2055788 C76.1266559,91.9843734 76.0312938,91.9843734 75.9163367,92.0287887 C75.4965692,92.2878776 75.5662401,92.807797 75.4116577,93.3886785 C75.098574,93.4396254 75.0524169,93.4862178 74.978827,93.5567597 C75.1760829,93.6477673 75.2026449,93.6682331 75.2814602,93.8053979 C75.1638904,93.8715853 75.1482145,93.8998891 75.0559005,94.0383601 C74.8677889,93.9787043 74.736285,93.9412561 74.6195862,93.9752207 C74.2133175,94.3018034 74.2620871,94.8461076 74.2268163,95.2232016 C73.9215704,95.1888016 74.0430591,95.2009941 73.8584311,95.1840117 C73.666836,95.497531 73.6407094,95.75183 73.4595649,95.9704225 C73.278856,95.893349 73.3167394,95.7801338 73.1608508,95.9525694 C73.0528607,96.0292074 72.40884,97.2767527 72.404921,97.3864845 C72.2372753,97.3568743 72.2233411,97.3647124 72.1062068,97.3686313 C72.0374067,97.8066874 71.8767282,98.0892902 71.6707634,98.7542123 C71.2357554,98.7925313 70.9640387,99.9185879 70.8712892,100.327469 C70.6675017,100.362305 70.6487777,100.340533 70.5076941,100.517323 C70.6862258,100.674518 70.6574866,100.767267 70.6283119,100.859146 C70.4523927,100.85392 70.2760381,100.851308 70.1001189,100.846518 C70.3026002,101.96822 69.5201083,102.193344 69.338093,103.265842 C69.1186295,103.708252 68.9078749,103.679948 68.683186,103.89767 C68.8612825,104.363159 68.341363,104.817326 68.0613728,105.148263 C67.8175245,105.437398 67.429109,105.646411 67.2466582,105.803606 C66.9993265,106.01915 66.9697162,106.383616 66.7088857,106.546908 C66.6157007,106.604822 66.3770778,106.572599 66.2978271,106.645753 C66.2730068,106.668832 66.3492094,106.896569 66.2577663,107.014138 C65.9320546,107.431729 65.5614922,107.737845 64.8852486,107.807516 C64.2926101,108.705401 60.295675,110.179377 60.1036445,110.145412 C60.0470368,110.148896 59.8641506,110.351377 59.8380239,110.357908 C59.5554212,110.414081 59.2675931,110.332653 59.1326057,110.323073 C59.0616284,110.319154 58.8286661,110.443255 58.7899116,110.444126 C58.5896077,110.355731 58.3893038,110.268643 58.1894352,110.179377 C58.0657693,110.205939 57.6651613,110.563873 57.5301739,110.579985 C57.18748,110.627013 57.0407355,110.431063 56.8164821,110.431063 C56.6344668,110.431934 56.017008,110.698425 55.8990028,110.448045 C55.6259798,110.589564 55.4875088,110.547762 55.3494732,110.503347 C54.5621916,110.493331 53.6808541,110.374455 53.0555573,110.541666 C52.6344835,110.237291 52.0601337,110.514668 51.7231005,110.426273 C51.6177232,110.399711 51.4770749,110.15325 51.2815609,110.138009 C51.2084063,110.131042 51.0403252,110.272997 51.0085379,110.278222 C50.861358,110.253402 50.6871806,110.092723 50.4559601,110.10448 C50.0714636,110.228146 49.6630176,109.93727 49.3952199,109.847133 C49.2336705,109.791832 48.748151,109.84365 48.6375484,109.837554 C48.4376799,109.750029 48.2369404,109.659893 48.037072,109.570627 C47.8881504,109.557128 47.4335475,109.583255 47.3490714,109.583255 C47.321203,109.581513 47.1457192,109.439558 47.0251014,109.404723 C46.51302,109.255801 46.1816476,109.129087 45.5972825,109.106879 C45.2698291,109.095122 44.8496262,109.246657 44.5661526,109.238819 C44.4355195,109.172631 44.304451,109.105138 44.1729471,109.03895 C43.9830938,109.030677 43.7975949,109.21095 43.6486733,109.255801 C43.5271845,109.242302 43.4035186,109.227933 43.281159,109.21574 C42.4120139,109.414738 41.6569551,110.108835 40.5618149,109.881969 C40.1032929,110.219437 39.7270698,110.502476 39.3351708,110.636157 C38.9424009,110.768096 38.7525475,110.597838 38.3959193,110.721068 C38.105914,111.009767 37.3465007,111.379459 37.3051335,111.290193 C37.2528804,111.375104 37.2001917,111.461322 37.148374,111.546234 C37.0647688,111.604148 35.9979324,112.079652 36.005335,111.794436 C35.9387121,111.923763 35.8725247,112.056573 35.8054664,112.187642 C35.7061853,112.180675 35.6064688,112.174578 35.5071877,112.169788 C35.2798862,112.296502 35.242438,112.520756 35.0342961,112.706255 C34.800463,112.913961 34.3132018,112.950539 34.0554193,113.15868 C33.981394,113.312827 33.9073686,113.468281 33.8333432,113.620686 C33.7253533,113.746529 33.5289682,113.641587 33.4218492,113.721709 C33.4218492,113.721709 33.2925225,114.077902 33.2015148,114.183714 C32.9872766,114.10098 33.1078945,114.112737 32.9241373,114.096626 C32.9589728,114.215937 33.123135,114.324798 32.9972918,114.346135 C32.7974234,114.461527 32.8004714,114.378357 32.60757,114.376616 C32.5914586,114.685345 32.635003,114.556889 32.5239649,114.882601 C32.4085723,114.846024 32.2936152,114.807705 32.1782227,114.772869 C32.0863442,115.048505 32.1917215,114.977963 32.069362,115.118176 C31.9017161,115.112951 31.8938782,115.057649 31.7710832,115.100323 C31.7035894,115.231391 31.7284097,115.316303 31.7523591,115.399037 C31.4375336,115.503543 31.4323081,115.901539 31.4405816,115.909812 C31.2894828,115.965984 31.0121054,115.871928 30.8906166,115.965113 C30.837057,116.459342 30.495234,116.802036 30.3345553,117.007129 C29.8764688,117.202643 29.7532384,117.573641 29.4540887,117.87192 C29.3317292,117.993844 29.1375214,117.970766 28.9990504,118.107495 C29.0917998,118.255546 29.0765593,118.199373 29.0504327,118.429288 C28.6533083,118.614351 28.44386,119.125562 28.0145128,119.549248 C27.9343913,119.801805 27.9200217,119.847527 27.905652,119.892813 C27.6953329,119.91415 27.5407503,120.122292 27.5194137,120.153208 C27.3090945,120.671821 26.9698841,121.080703 26.7600003,121.35808 C26.7229876,121.408156 26.8335903,121.598009 26.7199396,121.726465 C26.4329824,121.914141 26.3750684,122.09964 26.316719,122.284268 C26.2265822,122.387033 25.8499236,122.475863 25.770673,122.568177 C25.6152196,122.753676 25.9478984,122.682263 25.8216198,122.887357 C25.7580451,122.994476 25.3752903,123.198699 25.3234725,123.263145 C25.1889205,123.433403 25.4079486,123.611935 25.4014168,123.743874 C25.4014168,123.743874 25.1836952,124.182366 25.1789053,124.206315 C25.1379736,124.406184 24.8157455,124.540736 24.7282214,124.673111 C24.6341952,124.815781 23.9863641,126.593197 23.5870974,127.744547 C22.5543741,126.761618 21.561408,125.739202 20.6103829,124.680089 C20.8171169,124.393869 21.0381399,124.153679 21.2028715,123.79308 Z M33.4623455,135.492138 C33.5015353,135.372391 33.677019,135.169039 33.7218697,135.09066 C33.8725331,134.822861 33.7344975,134.747095 33.7327558,134.490182 C33.9374142,134.479297 33.9334952,134.467539 34.068918,134.356066 C33.9992472,134.339084 33.9295762,134.32036 33.8594699,134.300765 C34.1011409,133.452085 34.3955007,133.040156 34.5483412,132.306434 C34.3236525,132.258535 34.1547004,132.243294 34.2221941,131.844428 C34.4207564,131.664154 34.3536981,131.215213 34.538326,130.951333 C34.6267211,130.901258 34.7159869,130.84944 34.804382,130.797622 C34.900615,130.606027 34.7281794,130.397885 34.7273085,130.250705 C35.0051214,129.948943 35.5063168,127.341943 35.4235825,126.833346 C35.7018308,126.803735 36.0057704,126.489781 36.1229046,126.194985 C36.089811,126.127492 36.0728287,126.013841 36.0392995,125.948089 C35.9530817,125.982054 36.013173,125.966813 35.8807982,125.978135 C35.8868943,125.955927 35.8925551,125.931978 35.8990868,125.908899 C36.1194212,125.637618 35.8337702,124.999693 35.9400184,124.641759 C36.1285655,124.007318 36.3610922,124.239409 36.382429,123.559246 C36.4538417,123.5771 36.5235126,123.596695 36.5923127,123.615419 C36.717285,123.818771 36.5979735,123.699459 36.854885,123.761728 C36.8670775,123.715571 36.8797054,123.668978 36.8914623,123.619338 C36.8574977,123.531814 36.8574977,123.334558 36.8474825,123.233535 C36.893204,123.246163 36.9402319,123.259661 36.9859536,123.272725 C37.2846677,123.521798 37.9992303,123.325413 38.2522229,123.313221 C39.3133986,123.261403 40.1011158,125.088524 39.8759915,125.928494 C39.9474043,126.227208 39.6974596,126.26814 39.6164672,126.613011 C39.5123963,127.060647 39.286401,127.483462 39.1505427,128.064344 C39.1148364,128.210218 39.287272,128.188445 39.2145529,128.380476 C39.1461883,128.560749 38.7447095,128.932618 38.7455803,129.006644 C38.7917374,129.01753 38.8392007,129.033641 38.8853578,129.046269 C38.9284667,129.224365 38.8666337,129.50392 38.8740361,129.641956 C38.9080007,130.265946 38.5108763,131.066291 38.3636965,131.532216 C37.9500252,132.837674 37.3552096,135.087175 37.3386626,136.441404 C37.3382272,136.480594 37.0882827,136.940423 36.9837763,137.144646 L33.4623455,135.492138 Z M42.2970568,80.9180145 C42.3745658,80.9937816 42.4525102,81.0678071 42.5304545,81.1435743 C42.2905252,81.4374985 42.4154975,81.3821971 42.3122974,81.8354938 C42.196034,81.8389774 42.1807935,81.8459444 42.0140186,81.8176406 C41.8846919,81.6817823 41.845502,81.6264809 41.7375121,81.7309873 C41.67655,81.7623393 41.6160233,81.7949976 41.5546258,81.8254786 C41.503679,82.0501674 41.3787068,82.3062081 41.476246,82.5609426 C41.4906157,82.5143501 41.5045499,82.4694995 41.5189195,82.4224716 C41.6025246,82.3784918 41.6491171,82.329722 41.7231425,82.2583093 C41.7692994,82.2726789 41.8158919,82.2874841 41.8616134,82.3018538 C41.8472438,82.3484461 41.8328741,82.3937323 41.8176336,82.4403246 C41.5768335,82.4895298 41.2981497,82.9659049 41.0281747,83.257652 C40.7769239,83.1453076 40.6314857,83.2058342 40.3406096,83.268538 C40.3462704,83.4030901 40.3327716,83.3395153 40.3658653,83.4287813 C40.4024426,83.6277789 40.3214501,83.4662294 40.460792,83.6099257 C40.5766199,83.3769635 40.5683465,83.4531661 40.7773594,83.3290647 C40.78781,83.4601332 40.819162,83.5206598 40.8505138,83.580751 C40.7007213,83.8124069 40.2091057,84.1916781 40.4290046,84.4381391 C40.414635,84.4834252 40.3998299,84.5300176 40.3854603,84.5757393 C40.3854603,84.5757393 40.0741182,84.6702304 40.0214296,84.7655925 C39.9160523,84.957623 40.1625132,84.9014509 40.0519106,85.1553144 C39.8333181,85.6525908 39.5977431,85.8389606 39.2184719,86.1102418 C39.5202342,86.1951533 39.4928013,86.0880342 39.5433127,86.2879027 C39.2576618,86.4485814 38.5866435,87.7610078 38.3832915,88.2804918 C38.7464513,88.452492 38.5121827,89.2023255 38.4503498,89.5171511 C38.1808102,89.4866701 38.2618027,89.4566244 38.1076557,89.6386398 C38.3036053,90.0105085 38.5195852,89.8437336 38.4403346,90.2756935 C38.1781976,90.337091 38.3253775,90.4542253 38.1451039,90.4868836 C38.1594735,90.7250711 38.267028,90.6201292 38.2874939,90.7607775 C38.3197167,90.9767574 37.7989264,92.0914926 37.7144504,92.1010723 C37.7606074,92.2182066 37.7471086,92.1102167 37.8307137,92.2138521 C37.8146024,92.6623589 38.071514,92.7098222 38.2574482,93.0337921 C37.9060455,93.1570225 38.0619343,93.2245164 37.9922633,93.6325268 C38.0619343,93.6556054 38.1307343,93.6760712 38.1999697,93.6974078 C38.3384407,93.4844761 38.2940255,93.493185 38.5626941,93.5101672 C38.8043653,93.0194225 38.8884058,93.1748758 38.9598185,92.4921006 C39.0055401,92.5082119 39.051697,92.5225816 39.0978541,92.5373866 C39.3081733,92.9453971 39.0307958,93.5084254 39.1427047,93.8445877 C39.2280516,93.8955347 39.3129631,93.9464815 39.3978746,94.0000411 C39.367829,94.0161525 39.3377834,94.0322638 39.3073024,94.0483753 C39.2432921,94.2303907 39.2998998,94.4254693 39.2933682,94.5748264 C39.286401,94.7163454 39.071292,94.6031302 39.0678085,94.8104013 C39.0651958,94.9719508 39.2789986,95.4696626 39.3342998,95.6534197 C39.3647809,95.6373083 39.3943911,95.6211968 39.4253075,95.6063918 C39.5825026,95.513207 39.61429,95.3882347 39.8111104,95.347303 C39.8180774,95.5284474 39.8642345,95.7104628 39.9565485,95.8489338 C39.3682645,96.4968736 39.8189484,96.4946964 39.9116978,97.202292 C39.9321636,97.3612288 39.7875964,97.4613808 39.8494294,97.6407834 C39.9674346,97.778819 40.3915564,97.9207736 40.5674756,98.0178774 C40.4925793,98.1376244 40.363688,98.24126 40.3240627,98.5491184 C40.3310299,98.5517311 40.5744428,98.6079032 40.4411971,98.6614629 C40.3946046,98.6497058 40.348883,98.6327236 40.3027261,98.6187894 C40.2722449,98.6357716 40.2417639,98.6523186 40.2117184,98.6666882 C40.1903816,98.8195288 40.1729639,98.8282376 40.0806498,99.0834075 C40.3096931,99.3111444 40.156417,99.4744356 40.5034655,99.6716916 C40.525673,99.6020206 40.5474452,99.5323497 40.5692173,99.4644204 C40.3924273,99.321595 40.2944526,99.0281062 40.2374095,98.8264959 C40.2826957,98.8426072 40.329288,98.8552351 40.3754451,98.8709111 C40.4067969,98.9318732 40.4385844,98.991529 40.4703718,99.0520555 C40.525673,98.9445011 40.4808224,98.9440656 40.583587,98.9362276 C40.6415011,99.0119948 40.6354048,98.998496 40.7690859,99.0712151 C40.7468784,99.1404506 40.7255416,99.2092506 40.7033339,99.2780506 C40.960681,99.4330686 40.8492075,99.4822737 41.1217951,99.637727 C41.1091672,99.760522 41.0965394,99.8828816 41.0830407,100.006983 C41.6312638,100.313971 41.3329851,100.638811 41.5572385,100.916189 C41.7732184,101.182245 41.8738059,101.190083 41.9804895,101.504473 C42.0227275,101.629445 42.4298671,101.96822 42.2866062,101.98259 C42.0993655,101.948625 41.969168,101.85065 41.6856944,101.716534 C41.6713247,101.762255 41.6569551,101.811025 41.6425855,101.855876 C41.7035474,101.978235 41.7196589,102.12019 41.7409956,102.265628 C41.9643781,102.361861 42.1877606,102.458094 42.411143,102.552585 C42.3828392,102.350975 42.3636797,102.146752 42.3567126,102.003056 C42.4024341,102.017425 42.4485912,102.031795 42.4947482,102.047906 C42.6994065,102.419775 42.8892599,102.475947 43.2158424,102.654479 C43.1553159,102.939259 43.3547489,102.862185 43.1291892,102.930115 C43.0233765,102.922277 42.7207433,102.737649 42.549614,102.596565 C42.5522267,102.767694 42.5156495,102.737649 42.4411887,102.942742 C42.4869102,102.957983 42.5330672,102.971917 42.5796596,102.985416 C43.24284,103.595908 44.5169474,104.975392 45.9243005,105.409094 C45.9944069,105.315474 46.0079057,105.306329 46.0801893,105.153053 C46.0470956,105.063787 46.0623361,105.126056 46.054498,104.991504 C46.182083,105.089479 46.1764223,105.07598 46.3101034,105.14957 C46.1999362,105.44393 46.1568273,105.416061 46.0196626,105.590238 C46.3610503,105.72392 46.6493138,106.028295 46.8274102,105.921175 C46.9815571,105.791849 46.9153697,105.618542 47.3046562,105.613317 C47.3651827,105.939899 47.1518155,105.90071 47.3120587,106.07271 C47.3412334,105.980831 47.3708435,105.888082 47.3991473,105.796203 C47.5219424,105.808831 47.6451729,105.821459 47.7675325,105.834522 C47.8163022,105.862391 47.9530314,106.124528 47.9787226,106.130188 C48.3344798,106.195069 48.7259435,106.160234 49.1505007,106.272578 C49.1060856,106.33354 49.083007,106.326138 49.0599285,106.319171 C48.867898,106.3871 48.7194118,106.313074 48.5574268,106.464609 C48.5739737,106.49509 48.5896497,106.527748 48.6053256,106.554746 C49.2480402,106.564325 49.9713117,106.670574 50.5356463,106.707151 C50.7585933,106.801207 50.9824112,106.89744 51.2057937,106.993673 C51.3037685,106.924002 51.4017433,106.852589 51.5005889,106.782482 C51.5720016,106.774209 51.9747867,107.008042 52.0322653,107.025025 C52.5456531,107.190928 53.4352641,106.991931 53.8894314,106.924002 C54.2891685,106.867829 54.6292498,107.014138 55.0141818,106.973207 C56.6601579,106.805561 58.7524635,106.205955 60.1284647,105.465266 C60.8443338,105.081641 61.9107346,104.25604 62.5769631,103.725234 C62.5760921,103.649467 62.5743504,103.572829 62.5734795,103.496627 C62.677986,103.380799 62.9557989,103.251472 63.0707559,103.122145 C63.2597383,102.908778 63.285865,102.677557 63.497055,102.494671 C64.3853595,101.723065 66.0152243,99.3768963 66.0661712,98.4345968 C66.4275892,98.4054221 66.721078,97.4744441 67.0733518,96.9266562 C67.6982131,95.955182 68.5198948,93.7866738 68.6753481,92.5626423 C68.7358747,92.0762521 69.0668117,91.7640391 68.9971408,91.2963729 C68.9170192,90.7564231 69.2122499,90.1211111 69.1486752,89.3647459 C69.111227,88.9301733 68.8678141,88.2204006 68.8699913,87.8332914 C68.8712977,87.6726128 69.0507003,87.5628811 69.0480877,87.5093216 C68.8869736,84.4668784 67.0515796,81.9156154 64.9035373,79.8925453 C64.3204785,79.3430156 63.1613282,78.8596734 62.677115,78.5078352 C62.4001731,78.421182 62.1232311,78.3332224 61.8471599,78.2465691 C60.7777109,77.5246039 58.8661143,76.3545675 57.1626596,76.6972615 C57.2767458,76.323651 57.1892217,76.3798232 56.6958643,76.2465775 C56.5295249,75.9861824 56.3988919,76.1381522 56.1646234,76.0022938 C56.0161372,75.9156405 55.9125016,75.6117011 55.7892711,75.5037111 C55.4165316,75.1771285 55.001554,75.0869917 54.5395485,74.8823333 C54.4877307,74.9663739 54.4346066,75.0530271 54.3832244,75.1375032 C54.220804,75.2224146 54.0222417,75.0260296 53.8075681,75.0325613 C53.0821194,75.0547689 52.4655315,75.2829413 51.7470499,75.29644 C51.6621384,75.2446222 51.5767915,75.1928045 51.4918801,75.1405512 C51.4169838,75.2180601 51.3412166,75.29644 51.2663203,75.3739489 C51.0699353,75.4375236 50.7342085,75.3900603 50.5565476,75.454506 C50.3305525,75.5381111 50.1028155,75.8481468 49.8759495,75.9256557 C49.7000304,75.9204304 49.5245466,75.9156405 49.3486276,75.9104152 C49.1187135,75.9744253 48.9667437,76.2269826 48.7586017,76.3341017 C48.2182165,76.6119146 47.3586511,76.6493628 46.8661646,77.0312465 C46.5953188,77.2424366 46.4729592,77.5341837 46.1894856,77.7323105 C46.0061638,77.7501637 45.8232776,77.7680168 45.6395206,77.7867409 C45.5171609,77.8903765 45.6939509,77.9913993 45.5306597,78.1320475 C45.0756213,78.5248175 44.2447952,78.6362911 43.8502835,79.125294 C43.9957216,79.1949649 43.9473874,79.0769598 43.9665469,79.2367675 C43.6547694,79.2859725 43.1400754,79.721416 43.108288,80.032758 C43.038617,80.0114213 42.9698169,79.9892137 42.9001459,79.967877 C42.7137762,80.4764749 42.4943128,80.4316242 42.2970568,80.9180145 Z"/>
</svg>
