<svg xmlns="http://www.w3.org/2000/svg" width="58" height="58" viewBox="0 0 58 58">
  <g fill="none" fill-rule="evenodd">
    <circle cx="30" cy="30" r="27.5" stroke="#E6EDF2"/>
    <path fill="#1B599B" fill-rule="nonzero" d="M34,32 L34,24 C33.7249641,21.19675 31.3690213,19 28.5,19 C25.6309787,19 23.2750359,21.19675 23.0224215,24 L23,57 L23,56 L15,56 L15,25.0003309 L15.0090877,24 C15.2721137,16.7758005 21.2115516,11 28.5,11 C35.7884484,11 41.7278863,16.7758005 41.9909123,24 L41.9981825,32 L34,32 Z M17,56 L21,56 L21,22 L21.4266178,22 C22.4599612,19.0732922 25.2515122,17 28.5,17 C31.7484878,17 34.5400388,19.0732922 35.5733822,22 L36,22 L36,32 L40,32 L40,24.2859971 L39.9922366,24.0727698 C39.767648,17.9042813 34.6923968,13 28.5,13 C22.1487254,13 17,18.1487254 17,24.5 C17,24.6427778 17.0025923,24.7852015 17.0077634,24.9272302 L17.0832309,27 L17,27 L17,56 Z"/>
    <path stroke="#5CB6E4" d="M38,33.9505375 C36.3352353,36.6799791 35.5,38.5291318 35.5,39.4047303 C35.5,40.7432794 36.6166286,41.8333333 38,41.8333333 C39.3833714,41.8333333 40.5,40.7432794 40.5,39.4047303 C40.5,38.5291318 39.6647647,36.6799791 38,33.9505375 Z"/>
    <path fill="#1A589A" fill-rule="nonzero" d="M26,55.9296719 L26,53.9242207 C26.6600832,53.9744341 27.327056,54 28,54 C42.3594035,54 54,42.3594035 54,28 C54,13.6405965 42.3594035,2 28,2 C13.6405965,2 2,13.6405965 2,28 C2,36.3252897 5.9129216,43.7366676 12,48.4953689 L12,50.9812429 C4.7460636,45.9214583 0,37.5149804 0,28 C0,12.536027 12.536027,0 28,0 C43.463973,0 56,12.536027 56,28 C56,43.463973 43.463973,56 28,56 C27.3275331,56 26.6606031,55.9762939 26,55.9296719 Z"/>
    <rect width="6" height="3" x="35" y="28" stroke="#1B599B" stroke-width="2"/>
  </g>
</svg>
