<svg xmlns="http://www.w3.org/2000/svg" width="18" height="18" viewBox="0 0 18 18">
  <path fill="#5CB6E4" fill-rule="evenodd" d="M385.928571,294.285714 C386.813993,294.285714 387.571053,294.600071 388.199777,295.228795 C388.8285,295.857518 389.142857,296.614579 389.142857,297.5 L389.142857,308.214286 C389.142857,309.099707 388.8285,309.856768 388.199777,310.485491 C387.571053,311.114214 386.813993,311.428571 385.928571,311.428571 L383.830357,311.428571 L383.830357,304.787946 L386.051339,304.787946 L386.386161,302.198661 L383.830357,302.198661 L383.830357,300.546875 C383.830357,300.130206 383.917782,299.817709 384.092634,299.609375 C384.267486,299.401041 384.607884,299.296875 385.113839,299.296875 L386.475446,299.285714 L386.475446,296.975446 C386.006694,296.908482 385.344498,296.875 384.488839,296.875 C383.476929,296.875 382.667786,297.172616 382.061384,297.767857 C381.454982,298.363098 381.151786,299.203864 381.151786,300.290179 L381.151786,302.198661 L378.919643,302.198661 L378.919643,304.787946 L381.151786,304.787946 L381.151786,311.428571 L375.214286,311.428571 C374.328865,311.428571 373.571804,311.114214 372.94308,310.485491 C372.314357,309.856768 372,309.099707 372,308.214286 L372,297.5 C372,296.614579 372.314357,295.857518 372.94308,295.228795 C373.571804,294.600071 374.328865,294.285714 375.214286,294.285714 L385.928571,294.285714 Z" transform="translate(-372 -294)"/>
</svg>
