<svg xmlns="http://www.w3.org/2000/svg" width="18" height="15" viewBox="0 0 18 15">
  <path fill="#5CB6E4" fill-rule="evenodd" d="M590.080357,297.410714 C589.581843,298.139885 588.97917,298.761158 588.272321,299.274554 C588.279762,299.378721 588.283482,299.534969 588.283482,299.743304 C588.283482,300.71057 588.142115,301.675962 587.859375,302.639509 C587.576635,303.603055 587.146952,304.527525 586.570312,305.412946 C585.993673,306.298368 585.307296,307.08147 584.511161,307.762277 C583.715026,308.443084 582.755214,308.986233 581.631696,309.391741 C580.508179,309.797249 579.306554,310 578.026786,310 C576.010407,310 574.165187,309.460571 572.491071,308.381696 C572.751489,308.411458 573.041665,308.426339 573.361607,308.426339 C575.035723,308.426339 576.527523,307.912952 577.837054,306.886161 C577.0558,306.87128 576.356402,306.631327 575.738839,306.166295 C575.121277,305.701263 574.697174,305.107891 574.466518,304.386161 C574.712055,304.423363 574.938987,304.441964 575.147321,304.441964 C575.467264,304.441964 575.783481,304.401042 576.095982,304.319196 C575.262645,304.148065 574.572547,303.733262 574.02567,303.074777 C573.478792,302.416291 573.205357,301.65179 573.205357,300.78125 L573.205357,300.736607 C573.711312,301.019347 574.254461,301.171875 574.834821,301.194196 C574.343748,300.866814 573.953126,300.438991 573.662946,299.910714 C573.372766,299.382438 573.227679,298.809527 573.227679,298.191964 C573.227679,297.537199 573.391367,296.930806 573.71875,296.372768 C574.619052,297.481404 575.714651,298.368672 577.00558,299.034598 C578.296509,299.700524 579.678564,300.070684 581.151786,300.145089 C581.092262,299.86235 581.0625,299.587055 581.0625,299.319196 C581.0625,298.322168 581.414059,297.472102 582.117188,296.768973 C582.820316,296.065845 583.670382,295.714286 584.667411,295.714286 C585.709083,295.714286 586.58705,296.093746 587.301339,296.852679 C588.112355,296.696428 588.874996,296.406252 589.589286,295.982143 C589.313987,296.837802 588.785718,297.499998 588.004464,297.96875 C588.696432,297.894345 589.388389,297.708335 590.080357,297.410714 Z" transform="translate(-572 -295)"/>
</svg>
