<svg xmlns="http://www.w3.org/2000/svg" width="59" height="57" viewBox="0 0 59 57">
  <g fill="none" fill-rule="evenodd">
    <ellipse cx="30.533" cy="29" stroke="#E6EDF2" rx="27.033" ry="27.5"/>
    <ellipse cx="28.467" cy="28" stroke="#E6EDF2" stroke-width="5" rx="23.15" ry="23.5"/>
    <path fill="#1A589A" fill-rule="nonzero" d="M26.5,55.9296719 L26.5,53.9242207 C27.1490819,53.9744341 27.8049384,54 28.4666667,54 C42.5867468,54 54.0333333,42.3594035 54.0333333,28 C54.0333333,13.6405965 42.5867468,2 28.4666667,2 C14.3465866,2 2.9,13.6405965 2.9,28 C2.9,36.3252897 6.74770624,43.7366676 12.7333333,48.4953689 L12.7333333,50.9812429 C5.60029588,45.9214583 0.933333333,37.5149804 0.933333333,28 C0.933333333,12.536027 13.2604266,0 28.4666667,0 C43.6729068,0 56,12.536027 56,28 C56,43.463973 43.6729068,56 28.4666667,56 C27.8054076,56 27.149593,55.9762939 26.5,55.9296719 Z" transform="rotate(-90 28.467 28)"/>
    <rect width="1" height="33" x="45.183" y="12" fill="#E6EDF2" rx=".5"/>
    <rect width="1" height="39" x="43.217" y="9" fill="#E6EDF2" rx=".5"/>
    <rect width="1" height="43" x="41.25" y="6" fill="#E6EDF2" rx=".5"/>
    <path fill="#1B599B" d="M31.6780219,41.2712043 C31.1011442,41.6555646 30.3502199,41.9691171 29.4252263,42.211871 C28.5002328,42.4546249 27.5006581,42.576 26.426472,42.576 C25.0737934,42.576 23.8752982,42.3838227 22.8309507,41.9994624 C21.7866032,41.615102 20.8864886,41.0891431 20.1305799,40.4215699 C19.3746713,39.7539967 18.7580182,38.9802302 18.2806022,38.1002473 C17.8031861,37.2202644 17.4451295,36.2846645 17.2064215,35.2934194 L14.7,35.2934194 L15.5354738,32.683828 L16.8781996,32.683828 C16.8583073,32.5826805 16.8483613,32.47142 16.8483613,32.350043 L16.8483613,31.3486882 C16.8483613,31.1059343 16.8533343,30.8581267 16.8632805,30.6052581 C16.8732266,30.3523894 16.8980917,30.1146965 16.9378763,29.892172 L14.7895151,29.892172 L15.6846656,27.2825806 L17.3257749,27.2825806 C17.6241599,26.1699586 18.0617847,25.1686138 18.6386624,24.2785161 C19.21554,23.3884185 19.9067883,22.6247666 20.7124278,21.9875376 C21.5180673,21.3503086 22.4331009,20.8597508 23.4575561,20.5158495 C24.4820113,20.1719481 25.5909922,20 26.7845323,20 C27.7393643,20 28.6394789,20.0960886 29.484903,20.2882688 C30.3303272,20.480449 31.0215755,20.718142 31.5586685,21.0013548 L30.4248111,24.0357634 C29.9672874,23.7525506 29.4003644,23.5401441 28.7240251,23.3985376 C28.0476857,23.2569312 27.3415185,23.186129 26.6055022,23.186129 C26.0087321,23.186129 25.4119711,23.2771604 24.8152011,23.4592258 C24.2184311,23.6412912 23.6664271,23.9042707 23.1591726,24.248172 C22.6519181,24.5920734 22.2043473,25.0168864 21.8164468,25.5226237 C21.4285463,26.028361 21.1351387,26.6150074 20.9362154,27.2825806 L29.5296606,27.2825806 L28.6941867,29.892172 L20.3692867,29.892172 C20.3096097,30.3169914 20.2797717,30.8126065 20.2797717,31.3790323 L20.2797717,32.0162581 C20.2797717,32.137635 20.2847447,32.2539528 20.2946909,32.3652151 C20.304637,32.4764773 20.3195561,32.5826805 20.3394484,32.683828 L27.9780663,32.683828 L27.1724308,35.2934194 L20.7870237,35.2934194 C20.92627,35.8598451 21.1649744,36.3908613 21.5031441,36.8864839 C21.8413138,37.3821064 22.2590465,37.8119767 22.7563548,38.1761075 C23.2536632,38.5402384 23.8205862,38.8285043 24.4571409,39.040914 C25.0936955,39.2533236 25.7899168,39.3595269 26.5458254,39.3595269 C28.0377505,39.3595269 29.3406788,39.0257453 30.4546495,38.358172 L31.6780219,41.2712043 Z"/>
    <path fill="#1B599B" fill-rule="nonzero" d="M46.0079781,44.8597527 C45.5846747,45.3540089 45.1391714,45.8356372 44.6714571,46.3033515 L43.2572435,44.8891379 C43.6877458,44.4586357 44.0995958,44.0136895 44.4923965,43.5550487 L46.0079781,44.8597527 Z M42.4851984,48.2869389 L41.237406,46.724466 C41.7106032,46.34949 42.1705083,45.9550758 42.6163267,45.5416266 L43.9780929,47.0063489 C43.4935098,47.4557483 42.9954399,47.8826079 42.4851984,48.2869389 Z M49.6680482,39.8802249 C49.3870915,40.4671987 49.0814229,41.0477206 48.7506989,41.6205513 L47.0186481,40.6205513 C47.3230592,40.0932959 47.6057153,39.5569163 47.8664266,39.012239 L49.6680482,39.8802249 Z M47.1435176,44.1115187 L45.5338449,42.9252383 C45.8938674,42.4405668 46.2360196,41.9405597 46.5596386,41.4258121 L48.2541018,42.4881742 C47.9023436,43.04768 47.5317244,43.5889048 47.1435176,44.1115187 Z"/>
  </g>
</svg>
